<?xml version="1.0" encoding="UTF-8" standalone="no"?>
<svg
   width="64"
   height="64"
   version="1.1"
   viewBox="0 0 16.933 16.933"
   id="svg42"
   sodipodi:docname="citra.svg"
   inkscape:version="1.1 (c68e22c387, 2021-05-23)"
   xmlns:inkscape="http://www.inkscape.org/namespaces/inkscape"
   xmlns:sodipodi="http://sodipodi.sourceforge.net/DTD/sodipodi-0.dtd"
   xmlns:xlink="http://www.w3.org/1999/xlink"
   xmlns="http://www.w3.org/2000/svg"
   xmlns:svg="http://www.w3.org/2000/svg"
   xmlns:rdf="http://www.w3.org/1999/02/22-rdf-syntax-ns#"
   xmlns:cc="http://creativecommons.org/ns#"
   xmlns:dc="http://purl.org/dc/elements/1.1/">
  <sodipodi:namedview
     id="namedview100"
     pagecolor="#ffffff"
     bordercolor="#666666"
     borderopacity="1.0"
     inkscape:pageshadow="2"
     inkscape:pageopacity="0.0"
     inkscape:pagecheckerboard="0"
     showgrid="false"
     inkscape:zoom="14.584077"
     inkscape:cx="23.450232"
     inkscape:cy="33.324014"
     inkscape:window-width="1746"
     inkscape:window-height="1012"
     inkscape:window-x="84"
     inkscape:window-y="44"
     inkscape:window-maximized="1"
     inkscape:current-layer="svg42" />
  <defs
     id="defs10">
    <linearGradient
       id="linearGradient1839"
       x1="-127"
       x2="-80.659"
       y1="60"
       y2="13.659"
       gradientTransform="matrix(0.26458,0,0,0.26458,34.79227,-0.1349358)"
       gradientUnits="userSpaceOnUse">
      <stop
         stop-color="#ff7d1e"
         offset="0"
         id="stop1835" />
      <stop
         stop-color="#ff922e"
         offset="1"
         id="stop1837"
          />
    </linearGradient>
    <filter
       id="filter1057"
       x="-0.026999999"
       y="-0.026999999"
       width="1.054"
       height="1.054"
       color-interpolation-filters="sRGB">
      <feGaussianBlur
         stdDeviation="0.61875"
         id="feGaussianBlur2" />
    </filter>
    <linearGradient
       id="linearGradient1053"
       x1="-127"
       x2="-80.659"
       y1="60"
       y2="13.659"
       gradientTransform="matrix(0.26458,0,0,0.26458,34.79227,-0.1349358)"
       gradientUnits="userSpaceOnUse">
      <stop
         stop-color="#ff7d1e"
         offset="0"
         id="stop5" />
      <stop
         stop-color="#ffa53c"
         offset="1"
         id="stop7" />
    </linearGradient>
    <clipPath
       id="clipPath4307-2">
      <path
         d="m640.25 512.56c0.366-0.686 1.015-1.901 1.507-3.229 0.237-0.588 0.284-0.774 0.375-1.057 0.174-0.52 0.277-0.819 0.368-1.099 0.09-0.28 0.019-0.115 0.107-0.392 0.087-0.277 0.181-0.577 0.264-0.852 0.082-0.276 0.15-0.659 0.224-0.934 0.076-0.276 0.167-0.604 0.233-0.881 0.066-0.276 0.257-1.337 0.312-1.615 0.316-1.599 0.241-2.12 0.401-3.701 0.16-1.58 0.244-3.151 0.26-4.712 0.016-1.563-0.038-3.115-0.154-4.66-0.117-1.545-0.296-3.081-0.533-4.61-0.237-1.528-0.531-3.049-0.877-4.562-0.345-1.513-0.742-3.02-1.184-4.518-0.442-1.5-0.93-2.992-1.457-4.478-0.527-1.485-1.094-2.964-1.694-4.438-1.181-2.896-2.451-5.732-3.805-8.51-1.353-2.778-2.789-5.5-4.302-8.169-1.512-2.671-3.099-5.288-4.755-7.858-1.656-2.571-3.38-5.093-5.165-7.574-1.785-2.48-3.631-4.918-5.53-7.318-1.9-2.4-3.853-4.762-5.852-7.09s-4.044-4.624-6.129-6.89c-2.084-2.267-4.207-4.506-6.362-6.72-2.218-2.28-4.472-4.518-6.76-6.714-2.287-2.197-4.608-4.353-6.961-6.47s-4.737-4.196-7.152-6.237-4.86-4.046-7.334-6.016c-2.473-1.969-4.975-3.904-7.504-5.806-2.528-1.902-5.084-3.771-7.664-5.609-2.581-1.838-5.187-3.645-7.816-5.423-2.63-1.778-5.282-3.527-7.957-5.247-3.325-2.142-6.677-4.217-10.058-6.225-3.381-2.007-6.792-3.946-10.232-5.813-3.441-1.867-6.912-3.661-10.416-5.38s-7.041-3.362-10.611-4.924c-3.571-1.563-7.177-3.046-10.818-4.446-1.846-0.709-3.702-1.398-5.566-2.064-1.814-0.648-3.636-1.274-5.468-1.88-3.716-1.228-7.47-2.37-11.263-3.42-3.794-1.049-7.627-2.009-11.502-2.872-1.624-0.362-3.249-0.695-4.876-1-1.627-0.304-3.255-0.578-4.886-0.823-1.631-0.244-3.262-0.457-4.896-0.638s-3.269-0.33-4.907-0.445c-1.636-0.116-3.275-0.197-4.915-0.245-1.639-0.046-3.28-0.058-4.923-0.034-1.641 0.024-3.285 0.085-4.929 0.183-1.645 0.097-3.29 0.233-4.937 0.408-1.337 0.142-2.664 0.317-3.979 0.531s-2.617 0.466-3.906 0.759c-1.288 0.294-2.562 0.627-3.819 1.007-1.256 0.38-2.496 0.805-3.717 1.278-1.22 0.475-2.422 0.997-3.602 1.571-1.179 0.575-2.337 1.201-3.471 1.884-1.133 0.683-2.244 1.421-3.326 2.22-1.084 0.798-2.656 1.973-3.685 2.893l-3.143-7.259c-3.143-7.26 1.5-6 3.143-8.5 1.644-2.5 0.357-9 0.217-15s6.64-11.5 9.64-14.5c3-3.001 10-10.5 14.5-11.82 4.5-1.319 23.5-16.18 30-18.181 6.5-1.999 13.5-6.999 22-8.499s19-3 27.5-3 26.5-0.5 38.5 0 27 3 33 4 20 2.5 27.5 4.5 23.5 8 27 11.5 28 13.999 33.5 20c5.5 6 24 39.5 25 45.5s14 47.499 17 53c3 5.5 0 39.499 0 45.5 0 6-10 45-10 45l-13.5 28.5-14 14.5z"
         id="path940" />
    </clipPath>
    <linearGradient
       xlink:href="#linearGradient1053"
       id="linearGradient43345"
       gradientUnits="userSpaceOnUse"
       x1="4.9122691"
       y1="8.4635324"
       x2="11.363389"
       y2="8.4635324" />
    <linearGradient
       xlink:href="#linearGradient1053"
       id="linearGradient43349"
       gradientUnits="userSpaceOnUse"
       x1="4.9122691"
       y1="8.4635324"
       x2="11.363389"
       y2="8.4635324" />
    <linearGradient
       xlink:href="#linearGradient1053"
       id="linearGradient43353"
       gradientUnits="userSpaceOnUse"
       x1="4.9122691"
       y1="8.4635324"
       x2="11.363389"
       y2="8.4635324" />
    <linearGradient
       xlink:href="#linearGradient1053"
       id="linearGradient43357"
       gradientUnits="userSpaceOnUse"
       x1="4.9122691"
       y1="8.4635324"
       x2="11.363389"
       y2="8.4635324" />
    <linearGradient
       xlink:href="#linearGradient1053"
       id="linearGradient43361"
       gradientUnits="userSpaceOnUse"
       x1="4.9122691"
       y1="8.4635324"
       x2="11.363389"
       y2="8.4635324" />
    <linearGradient
       xlink:href="#linearGradient1053"
       id="linearGradient43365"
       gradientUnits="userSpaceOnUse"
       x1="4.9122691"
       y1="8.4635324"
       x2="11.363389"
       y2="8.4635324" />
    <linearGradient
       xlink:href="#linearGradient1053"
       id="linearGradient43369"
       gradientUnits="userSpaceOnUse"
       x1="4.9122691"
       y1="8.4635324"
       x2="11.363389"
       y2="8.4635324" />
    <linearGradient
       xlink:href="#linearGradient1053"
       id="linearGradient43371"
       gradientUnits="userSpaceOnUse"
       x1="467.87457"
       y1="369.5386"
       x2="589.81"
       y2="520.12" />
    <linearGradient
       xlink:href="#linearGradient1053"
       id="linearGradient43373"
       gradientUnits="userSpaceOnUse"
       x1="4.9122691"
       y1="8.4635324"
       x2="11.363389"
       y2="8.4635324" />
    <linearGradient
       xlink:href="#linearGradient1053"
       id="linearGradient50627"
       x1="10.774839"
       y1="11.711854"
       x2="12.163436"
       y2="7.3283238"
       gradientUnits="userSpaceOnUse" />
    <linearGradient
       inkscape:collect="always"
       xlink:href="#linearGradient1053"
       id="linearGradient917"
       gradientUnits="userSpaceOnUse"
       gradientTransform="matrix(0.26458,0,0,0.26458,34.79227,-0.13493583)"
       x1="-127"
       y1="60"
       x2="-80.659"
       y2="13.659" />
    <linearGradient
       inkscape:collect="always"
       xlink:href="#linearGradient1053"
       id="linearGradient926"
       gradientUnits="userSpaceOnUse"
       gradientTransform="matrix(0.26458,0,0,0.26458,34.79227,-0.1349358)"
       x1="1385.0658"
       y1="1340.2185"
       x2="2212.5483"
       y2="2028.0942" />
    <linearGradient
       inkscape:collect="always"
       xlink:href="#linearGradient1839"
       id="linearGradient897"
       gradientUnits="userSpaceOnUse"
       gradientTransform="matrix(0.26458,0,0,0.26458,34.79227,-0.1349358)"
       x1="1393.9255"
       y1="1367.5549"
       x2="2097.7312"
       y2="1966.3427" />
  </defs>
  <metadata
     id="metadata12">
    <rdf:RDF>
      <cc:Work
         rdf:about="">
        <dc:format>image/svg+xml</dc:format>
        <dc:type
           rdf:resource="http://purl.org/dc/dcmitype/StillImage" />
      </cc:Work>
    </rdf:RDF>
  </metadata>
  <g
     fill="#5e4aa6"
     id="g24"
     transform="scale(0.26458)">
    <circle
       cx="-1248.7"
       cy="-1241.6"
       r="0"
       id="circle14" />
    <circle
       cx="-1140.3"
       cy="-1301.8"
       r="0"
       id="circle16" />
    <circle
       cx="-1158.1"
       cy="-1246"
       r="0"
       id="circle18" />
    <circle
       cx="-1157.3"
       cy="-1267.7"
       r="0"
       id="circle20" />
    <circle
       cx="-57.756001"
       cy="-2.1829"
       r="0"
       fill-rule="evenodd"
       id="circle22" />
  </g>
  <rect
     x="4.5"
     y="4.5"
     width="55"
     height="55"
     ry="15"
     fill="#141414"
     filter="url(#filter1057)"
     opacity="0.3"
     stroke-linecap="round"
     stroke-width="2.7444"
     id="rect26"
     transform="scale(0.26458)" />
  <rect
     x="1.1906101"
     y="1.1906101"
     width="14.5519"
     height="14.5519"
     ry="3.9686999"
     stroke-linecap="round"
     stroke-width="0.726113"
     id="rect28"
     fill="url(#linearGradient1053)" />
  <g
     id="g50983"
     transform="translate(0.10376446,-0.60459555)">
    <path
       d="M 7.6330546,13.069308 C 7.277822,13.024712 6.7651975,12.908575 6.4617901,12.80394 5.564801,12.494647 4.6521102,11.789021 4.2440054,11.089339 4.0980057,10.839002 4.0493582,10.515291 4.0931016,10.085105 4.1241237,9.779999 4.1768141,9.5922309 4.3091327,9.3152695 4.7201408,8.4549175 5.4074783,7.6354886 6.296824,6.9454058 6.9663268,6.4260069 7.6712422,5.9997316 8.3042658,5.7315394 8.8480764,5.50113 9.5271187,5.3062715 9.9646517,5.2550979 c 0.5400383,-0.063172 1.1079243,0.022986 1.4743163,0.2236745 0.370362,0.2028575 0.604563,0.5011692 0.867482,1.1048238 0.246723,0.5665236 0.341921,1.0920847 0.341506,1.8854034 -2.98e-4,0.6729987 -0.08242,1.1564319 -0.282235,1.6624794 -0.165944,0.420271 -0.428941,0.869299 -0.721723,1.232254 -0.130369,0.161607 -0.527872,0.554061 -0.700156,0.691268 -0.391692,0.31192 -0.901689,0.600159 -1.3084313,0.739479 -0.3388397,0.116064 -0.7898229,0.219863 -1.1681242,0.268844 -0.1911059,0.02475 -0.6578302,0.02804 -0.8343207,0.0059 z"
       fill="#ffffff"
       stroke-width="0.0148457"
       id="path952" />
    <g
       transform="matrix(0.02633335,0,0,-0.02633335,-5.2409203,19.774014)"
       id="g956"
       fill="url(#linearGradient1053)" />
    <g
       transform="matrix(0.02633335,0,0,-0.02633335,-5.2409203,19.774014)"
       id="g960"
       fill="url(#linearGradient1053)" />
    <g
       transform="matrix(0.02633335,0,0,-0.02633335,-5.2409203,19.774014)"
       id="g964"
       fill="url(#linearGradient1053)" />
    <g
       transform="matrix(0.02633335,0,0,-0.02633335,-5.2409203,19.774014)"
       id="g968"
       fill="url(#linearGradient43357)" />
    <g
       transform="matrix(0.02633335,0,0,-0.02633335,-5.2409203,19.774014)"
       id="g972"
       fill="url(#linearGradient1053)" />
    <g
       transform="matrix(0.02633335,0,0,-0.02633335,-5.2409203,19.774014)"
       id="g976"
       fill="url(#linearGradient1053)" />
    <g
       transform="matrix(0.02633335,0,0,-0.02633335,-5.2409203,19.774014)"
       id="g980"
       fill="url(#linearGradient1053)" />
    <g
       transform="matrix(0.02633335,0,0,-0.02633335,-5.2409203,19.774014)"
       id="g984"
       fill="url(#linearGradient1053)">
      <path
         id="path982"
         fill="url(#linearGradient1053)"
         d="m 493.43,497.7 c -3.943,-1.236 -7.454,-3.334 -11.002,-5.368 -14.602,-8.364 -28.162,-18.128 -39.782,-30.405 -5.392,-5.696 -4.536,-9.429 2.935,-11.564 13.892,-3.97 27.998,-7.036 42.519,-7.395 7.646,-0.189 11.495,3.378 12.86,10.836 1.395,7.615 1.69,15.275 1.485,25.395 -0.22,3.072 0.784,8.645 -0.687,14.051 -0.943,3.472 -2.527,5.026 -5.134,5.025 -0.929,0 -1.988,-0.197 -3.194,-0.575 m 73.88,29.12 c -14.169,-1.46 -27.39,-6.06 -40.199,-12.109 -7.73,-3.652 -12.567,-9.493 -14.146,-17.954 -1.793,-9.597 -3.042,-19.253 -2.904,-29.045 0,-2.697 -0.068,-5.395 0.022,-8.089 0.067,-1.997 -0.399,-4.391 1.83,-5.503 2.219,-1.108 4.351,0.084 6.055,1.392 2.834,2.177 5.567,4.529 8.099,7.054 14.061,14.024 27.283,28.841 40.42,43.726 4.051,4.589 8.321,9.1 10.964,14.772 1.594,3.423 0.812,4.978 -2.88,5.7 -1.112,0.218 -2.231,0.3 -3.353,0.3 -1.302,0 -2.607,-0.11 -3.908,-0.244 M 413.44,432.07 c -5.861,-6.67 -11.407,-13.524 -15.914,-21.172 -2.874,-4.876 -5.175,-10.064 -6.355,-15.632 -0.819,-3.866 0.412,-5.458 3.711,-5.517 2.078,0.023 4.038,0.607 5.971,1.3 18.942,6.786 36.964,15.693 55.17,24.173 7.774,3.62 15.486,7.375 22.781,11.914 2.187,1.361 4.634,2.997 4.191,5.914 -0.396,2.604 -3.356,2.319 -5.257,3.169 -0.692,0.308 -1.469,0.436 -2.215,0.612 -11.727,2.765 -23.679,4.039 -35.625,5.305 -1.381,0.147 -2.734,0.221 -4.058,0.221 -8.707,0 -16.182,-3.211 -22.4,-10.287 m 176.37,88.05 c -2.155,-1.598 -4.18,-3.381 -6.195,-5.159 -14.338,-12.647 -27.085,-26.892 -40.259,-40.697 -5.472,-5.734 -10.87,-11.588 -15.617,-17.981 -0.828,-1.116 -1.856,-2.369 -0.83,-3.824 0.972,-1.379 2.519,-1.147 3.87,-0.737 1.831,0.556 3.62,1.272 5.386,2.018 23.705,10.024 46.647,21.655 69.496,33.464 6.568,3.394 13.185,6.854 18.588,12.131 2.02,1.974 3.277,4.24 3.342,7.436 -0.072,2.307 -0.943,4.698 -2.221,6.96 -4.063,7.191 -12.308,11.156 -20.705,11.156 -5.215,0 -10.489,-1.53 -14.855,-4.767 M 475.92,419.25 c -0.367,-0.104 -0.71,-0.292 -1.065,-0.437 -22.555,-9.166 -44.21,-20.249 -65.865,-31.321 -5.464,-2.792 -10.748,-5.939 -15.684,-9.652 -5.297,-3.984 -8.316,-8.98 -7.651,-15.694 0,-0.89 -0.035,-1.662 0.005,-2.431 0.397,-7.627 4.249,-12.981 10.812,-16.559 6.098,-3.323 11.35,-1.172 16.365,2.52 1.236,0.911 2.498,1.799 3.649,2.811 22.843,20.104 43.28,42.565 63.347,65.381 1.264,1.437 3.447,3.141 2.012,5.299 -0.613,0.922 -1.333,1.232 -2.102,1.231 -1.232,0 -2.589,-0.797 -3.823,-1.148 m 147.51,66.71 c -2.879,-0.515 -5.736,-1.318 -8.503,-2.282 -15.719,-5.482 -30.649,-12.847 -45.782,-19.703 -12.92,-5.855 -25.833,-11.785 -38.083,-19.013 -2.413,-1.425 -5.354,-3.1 -4.765,-6.319 0.504,-2.751 3.758,-2.789 6.016,-3.319 17.339,-4.073 35.01,-5.712 51.316,-7.058 10.474,0.119 18.926,1.786 25.516,8.829 6.88,7.354 12.632,15.489 16.919,24.601 2.691,5.72 4.477,11.786 4.479,18.169 0.002,4.153 -1.835,6.272 -5.267,6.272 -0.571,0 -1.188,-0.059 -1.846,-0.177 M 492.04,416.52 c -3.243,-1.617 -5.823,-4.156 -8.361,-6.684 -16.977,-16.905 -32.998,-34.704 -48.672,-52.819 -4.26,-4.924 -8.651,-9.823 -11.376,-15.886 -1.919,-4.27 -0.934,-6.454 3.654,-7.668 4.725,-1.249 9.544,-1.787 14.436,-1.358 11.696,1.026 22.799,4.32 33.655,8.677 10.044,4.032 16.339,11.18 18.544,21.838 2.891,13.979 3.907,28.175 4.618,42.392 0,2.182 0.021,4.364 -0.013,6.545 -0.01,0.636 -0.15,1.274 -0.276,1.902 -0.545,2.722 -1.447,4.01 -3.104,4.01 -0.83,0 -1.848,-0.323 -3.105,-0.949 m 16.33,1.86 c -1.948,-9.873 -2.175,-19.875 -2.148,-30.734 0.105,-4.803 -0.008,-10.436 0.607,-16.082 1.248,-11.467 5.143,-14.109 15.617,-9.51 17.862,7.84 33.696,18.829 47.854,32.241 3.988,3.779 8.185,7.422 11.089,12.202 2.673,4.397 2.097,6.88 -2.266,9.608 -1.396,0.873 -2.949,1.54 -4.502,2.103 -5.181,1.881 -10.542,3.121 -15.918,4.281 -12.621,2.721 -25.222,5.644 -38.216,5.823 -0.08,10e-4 -0.159,10e-4 -0.239,10e-4 -6.452,0 -10.63,-3.605 -11.878,-9.933"
          />
    </g>
    <g
       transform="matrix(0.02633335,0,0,-0.02633335,-5.2409203,19.774014)"
       id="g988">
      <path
         d="m 641.75,509.34 c 0.237,-0.588 0.284,-0.774 0.375,-1.057 0.174,-0.52 0.277,-0.819 0.368,-1.099 0.09,-0.28 0.019,-0.115 0.107,-0.392 0.087,-0.277 0.181,-0.577 0.264,-0.852 0.082,-0.276 0.15,-0.659 0.224,-0.934 0.076,-0.276 0.167,-0.604 0.233,-0.881 0.066,-0.276 0.257,-1.337 0.312,-1.615 0.316,-1.599 0.241,-2.12 0.401,-3.701 0.16,-1.58 0.244,-3.151 0.26,-4.712 0.016,-1.563 -0.038,-3.115 -0.154,-4.66 -0.117,-1.545 -0.296,-3.081 -0.533,-4.61 -0.237,-1.528 -0.531,-3.049 -0.877,-4.562 -0.345,-1.513 -0.742,-3.02 -1.184,-4.518 -0.442,-1.5 -0.93,-2.992 -1.457,-4.478 -0.527,-1.485 -1.094,-2.964 -1.694,-4.438 -1.181,-2.896 -2.451,-5.732 -3.805,-8.51 -1.353,-2.778 -2.789,-5.5 -4.302,-8.169 -1.512,-2.671 -3.099,-5.288 -4.755,-7.858 -1.656,-2.571 -3.38,-5.093 -5.165,-7.574 -1.785,-2.48 -3.631,-4.918 -5.53,-7.318 -1.9,-2.4 -3.853,-4.762 -5.852,-7.09 -1.999,-2.328 -4.044,-4.624 -6.129,-6.89 -2.084,-2.267 -4.207,-4.506 -6.362,-6.72 -2.218,-2.28 -4.472,-4.518 -6.76,-6.714 -2.287,-2.197 -4.608,-4.353 -6.961,-6.47 -2.353,-2.117 -4.737,-4.196 -7.152,-6.237 -2.415,-2.041 -4.86,-4.046 -7.334,-6.016 -2.473,-1.969 -4.975,-3.904 -7.504,-5.806 -2.528,-1.902 -5.084,-3.771 -7.664,-5.609 -2.581,-1.838 -5.187,-3.645 -7.816,-5.423 -2.63,-1.778 -5.282,-3.527 -7.957,-5.247 -3.325,-2.142 -6.677,-4.217 -10.058,-6.225 -3.381,-2.007 -6.792,-3.946 -10.232,-5.813 -3.441,-1.867 -6.912,-3.661 -10.416,-5.38 -3.504,-1.719 -7.041,-3.362 -10.611,-4.924 -3.571,-1.563 -7.177,-3.046 -10.818,-4.446 -1.846,-0.709 -3.702,-1.398 -5.566,-2.064 -1.814,-0.648 -3.636,-1.274 -5.468,-1.88 -3.716,-1.228 -7.47,-2.37 -11.263,-3.42 -3.794,-1.049 -7.627,-2.009 -11.502,-2.872 -1.624,-0.362 -3.249,-0.695 -4.876,-1 -1.627,-0.304 -3.255,-0.578 -4.886,-0.823 -1.631,-0.244 -3.262,-0.457 -4.896,-0.638 -1.634,-0.181 -3.269,-0.33 -4.907,-0.445 -1.636,-0.116 -3.275,-0.197 -4.915,-0.245 -1.639,-0.046 -3.28,-0.058 -4.923,-0.034 -1.641,0.024 -3.285,0.085 -4.929,0.183 -1.645,0.097 -3.29,0.233 -4.937,0.408 -1.337,0.142 -2.664,0.317 -3.979,0.531 -1.315,0.214 -2.617,0.466 -3.906,0.759 -1.288,0.294 -2.562,0.627 -3.819,1.007 -1.256,0.38 -2.496,0.805 -3.717,1.278 -1.22,0.475 -2.422,0.997 -3.602,1.571 -0.749,0.365 -1.489,0.751 -2.22,1.159 -0.522,0.286 -1.038,0.583 -1.55,0.891 -1.134,0.683 -2.243,1.421 -3.327,2.219 -0.744,0.549 -1.475,1.125 -2.194,1.731 -0.282,0.225 -0.554,0.448 -0.806,0.662 5.18,-5.701 10.508,-11.008 15.987,-15.904 5.538,-4.95 11.227,-9.48 17.07,-13.573 5.843,-4.094 11.839,-7.751 17.987,-10.956 6.148,-3.204 12.449,-5.954 18.901,-8.236 6.453,-2.28 13.059,-4.091 19.816,-5.415 6.758,-1.325 13.668,-2.162 20.731,-2.495 7.063,-0.333 14.278,-0.163 21.645,0.528 7.368,0.692 14.887,1.904 22.56,3.654 8.186,1.866 15.978,4.164 23.376,6.884 7.397,2.719 14.401,5.861 21.012,9.414 6.611,3.555 12.828,7.522 18.655,11.891 5.826,4.371 11.261,9.143 16.304,14.311 5.045,5.167 9.698,10.729 13.962,16.675 4.264,5.947 8.14,12.278 11.626,18.985 3.487,6.707 6.586,13.789 9.296,21.238 2.712,7.449 5.037,15.264 6.975,23.436 0.548,2.31 1.025,4.624 1.432,6.944 0.408,2.318 0.747,4.641 1.023,6.968 0.275,2.327 0.486,4.658 0.637,6.991 0.15,2.333 0.241,4.671 0.276,7.01 0.034,2.339 0.013,4.681 -0.061,7.024 -0.074,2.345 -0.2,4.69 -0.374,7.037 -0.174,2.348 -0.396,4.697 -0.664,7.046 -0.266,2.349 -0.577,4.699 -0.928,7.049 -0.39,2.617 -0.912,5.345 -1.535,8.125 -0.623,2.779 -1.346,5.609 -2.142,8.427 -0.795,2.819 -1.66,5.626 -2.569,8.359 -0.907,2.733 -1.855,5.391 -2.816,7.915 -0.959,2.523 -1.931,4.909 -2.883,7.098 -0.953,2.189 -1.888,4.179 -2.773,5.909 -0.886,1.73 -1.723,3.199 -2.481,4.346 -0.475,0.717 -1.25,1.831 -1.946,2.775 0.215,-0.462 0.433,-0.967 0.627,-1.49"
         fill="url(#linearGradient1053)"
         id="path986" />
    </g>
    <g
       transform="matrix(0.02633335,0,0,-0.02633335,-5.2409203,19.774014)"
       fill="url(#linearGradient1053)"
       id="g996">
      <g
         clip-path="url(#clipPath4307-2)"
         fill="url(#linearGradient1053)"
         id="g994">
        <g
           transform="translate(382.92,331.6)"
           fill="url(#linearGradient1053)"
           id="g992">
          <path
             d="m 0,0 c 6.615,-7.221 13.678,-14.033 21.222,-20.267 7.539,-6.237 15.577,-11.868 24.046,-16.747 8.468,-4.879 17.397,-8.961 26.656,-12.07 9.256,-3.117 18.837,-5.252 28.533,-6.374 9.697,-1.126 19.503,-1.24 29.23,-0.453 9.731,0.785 19.379,2.465 28.846,4.853 18.922,4.75 37.215,12.333 53.364,23.285 8.065,5.472 15.569,11.768 22.33,18.787 6.768,7.012 12.789,14.739 18.015,22.967 10.462,16.478 17.733,34.859 22.474,53.789 l 0.439,1.778 0.209,0.872 0.186,0.899 0.747,3.597 0.373,1.798 0.093,0.45 0.024,0.112 c -0.007,-0.038 0.007,0.055 0.01,0.076 l 0.034,0.227 0.134,0.908 0.539,3.634 0.269,1.817 c 0.077,0.534 0.118,1.199 0.18,1.791 l 0.338,3.658 0.164,1.796 0.075,1.835 0.15,3.671 c 0.264,9.752 -0.472,19.521 -1.882,29.184 -1.502,9.646 -4.173,19.05 -7.353,28.281 l -1.228,3.463 -0.307,0.865 -0.144,0.409 -0.173,0.426 -0.689,1.702 -1.379,3.405 -0.685,1.671 -0.778,1.664 -1.557,3.327 -0.371,0.788 -0.455,0.798 -0.909,1.596 -1.8039,3.187 c -12.883,30.325 -179.5,-236.54 -259.07,-177.56 z m -0.008,0.008 c 92.186,-40.479 231.35,107.76 257.54,180.96 0.828,-0.982 1.523,-1.975 2.238,-2.986 0.351,-0.52 0.707,-0.981 1.036,-1.569 l 0.913,-1.594 0.912,-1.594 0.457,-0.797 c 0.183,-0.358 0.275,-0.576 0.417,-0.871 l 2.346,-4.986 c 0.271,-0.617 0.473,-1.148 0.713,-1.726 l 1.387,-3.402 0.693,-1.701 0.173,-0.425 0.164,-0.457 0.309,-0.865 1.235,-3.459 c 3.22,-9.271 5.937,-18.782 7.475,-28.508 1.444,-9.716 2.213,-19.555 1.972,-29.393 l -0.14,-3.671 -0.069,-1.836 -0.164,-1.863 -0.329,-3.659 c -0.063,-0.625 -0.09,-1.185 -0.183,-1.864 l -0.264,-1.818 -0.528,-3.635 -0.132,-0.909 -0.033,-0.227 -0.024,-0.152 -0.023,-0.112 -0.092,-0.45 -0.369,-1.8 -0.736,-3.599 -0.185,-0.9 -0.216,-0.915 -0.436,-1.79 c -2.367,-9.534 -5.355,-18.932 -9.077,-28.033 -3.717,-9.105 -8.196,-17.911 -13.474,-26.221 -5.276,-8.31 -11.358,-16.118 -18.197,-23.206 -6.832,-7.094 -14.416,-13.459 -22.563,-18.989 -8.15,-5.528 -16.852,-10.229 -25.9,-14.096 -9.054,-3.857 -18.44,-6.901 -27.983,-9.247 -9.54,-2.354 -19.27,-3.997 -29.075,-4.737 -9.804,-0.741 -19.683,-0.576 -29.444,0.61 -9.761,1.181 -19.397,3.381 -28.694,6.565 -9.3,3.177 -18.256,7.329 -26.737,12.275 -8.488,4.941 -16.474,10.71 -23.972,17.028 -7.497,6.325 -14.5,13.22 -21.044,20.512 z"
             fill="url(#linearGradient1053)"
             id="path990" />
        </g>
      </g>
    </g>
    <path
       d="M 11.622658,6.2826379 Z"
       fill="none"
       stroke="#000000"
       stroke-width="0.0197505px"
       id="path998" />
    <path
       d="m 4.8829936,11.068977 c 0.4754738,0.376187 1.2185077,0.373205 2.034105,0.15386 C 7.732775,11.003508 8.6211331,10.567831 9.3786047,9.9896546 10.237001,9.3343722 10.848754,8.7836885 11.295372,8.0372772 11.497044,7.7002347 11.62878,7.3918503 11.698381,7.101103 c 0.06961,-0.2907472 0.04218,-0.5341723 -0.06749,-0.8023842 0,0 0.435538,0.6285007 0.553508,1.6117799 0.05898,0.4916494 0.02859,1.1733185 -0.222391,1.8434533 -0.233905,0.624551 -0.547938,1.209185 -1.08379,1.689656 -0.02034,0.01824 -0.241094,0.246447 -0.650542,0.481399 -0.5055339,0.290096 -0.9259828,0.444387 -1.4918349,0.545786 -0.6898063,0.123604 -1.174543,0.08793 -1.6952455,-0.03577 -0.727115,-0.172742 -1.4179681,-0.56372 -2.1772962,-1.363595"
       fill="url(#linearGradient1053)"
       id="path1000" />
  </g>
</svg>
