<?xml version="1.0" encoding="UTF-8" standalone="no"?>
<svg
   width="64"
   height="64"
   version="1.1"
   viewBox="0 0 16.933 16.933"
   id="svg16"
   xmlns:xlink="http://www.w3.org/1999/xlink"
   xmlns="http://www.w3.org/2000/svg"
   xmlns:svg="http://www.w3.org/2000/svg"
   xmlns:rdf="http://www.w3.org/1999/02/22-rdf-syntax-ns#"
   xmlns:cc="http://creativecommons.org/ns#"
   xmlns:dc="http://purl.org/dc/elements/1.1/">
  <metadata
     id="metadata20">
    <rdf:RDF>
      <cc:Work
         rdf:about="">
        <dc:format>image/svg+xml</dc:format>
        <dc:type
           rdf:resource="http://purl.org/dc/dcmitype/StillImage" />
      </cc:Work>
    </rdf:RDF>
  </metadata>
  <defs
     id="defs7">
    <linearGradient
       id="linearGradient904"
       x1="8.0618"
       x2="8.0618"
       y1="15.142"
       y2="1.4674"
       gradientUnits="userSpaceOnUse"
       gradientTransform="translate(0.71000061,-3.4026029)">
      <stop
         stop-color="#2858e4"
         offset="0"
         id="stop2" />
      <stop
         stop-color="#5ab9f4"
         offset="1"
         id="stop4" />
    </linearGradient>
    <linearGradient
       id="e"
       x1="105.41"
       x2="105.41"
       y1="-101.99"
       y2="308.4"
       gradientUnits="userSpaceOnUse">
      <stop
         stop-color="#fff"
         offset="0"
         id="stop845" />
      <stop
         stop-color="#d7d7d7"
         offset="1"
         id="stop847" />
    </linearGradient>
    <linearGradient
       id="linearGradient862-3"
       x1="7.9373"
       x2="7.9373"
       y1="15.081"
       y2="1.852"
       gradientTransform="scale(3.7796)"
       gradientUnits="userSpaceOnUse">
      <stop
         stop-color="#427fff"
         offset="0"
         id="stop850" />
      <stop
         stop-color="#59e3ff"
         offset="1"
         id="stop852" />
    </linearGradient>
    <linearGradient
       id="b"
       x1="399.57"
       x2="399.57"
       y1="545.8"
       y2="517.8"
       gradientTransform="matrix(2.1429,0,0,2.1429,-826.36,-1107.5)"
       gradientUnits="userSpaceOnUse">
      <stop
         stop-color="#3889e9"
         offset="0"
         id="stop2-36" />
      <stop
         stop-color="#5ea5fb"
         offset="1"
         id="stop4-7" />
    </linearGradient>
    <linearGradient
       id="a"
       x1="399.99"
       x2="399.99"
       y1="545.14"
       y2="518.14"
       gradientTransform="matrix(2.1429,0,0,2.1429,-826.36,-1107.5)"
       gradientUnits="userSpaceOnUse">
      <stop
         stop-color="#197ff1"
         offset="0"
         id="stop7" />
      <stop
         stop-color="#21c6fb"
         offset="1"
         id="stop9" />
    </linearGradient>
    <filter
       id="c"
       x="-.036"
       y="-.036"
       width="1.072"
       height="1.072"
       color-interpolation-filters="sRGB">
      <feGaussianBlur
         stdDeviation="0.41999874"
         id="feGaussianBlur12" />
    </filter>
    <filter
       id="d"
       x="-.038118"
       y="-.034105"
       width="1.0762"
       height="1.0682"
       color-interpolation-filters="sRGB">
      <feGaussianBlur
         stdDeviation="0.22736867"
         id="feGaussianBlur15" />
    </filter>
    <linearGradient
       gradientUnits="userSpaceOnUse"
       gradientTransform="matrix(.91667 0 0 .91667 .70544 -16.228)"
       y2="0.56832188"
       y1="13.415262"
       x2="3.9686999"
       x1="3.9686999"
       id="linearGradient1448">
      <stop
         style="stop-color:#1eaff0;stop-opacity:1"
         id="stop2-3"
         offset="0"
         stop-color="#144bb4" />
      <stop
         style="stop-color:#1464c8;stop-opacity:1"
         id="stop4-6"
         offset="1"
         stop-color="#00c8ff" />
    </linearGradient>
    <filter
       color-interpolation-filters="sRGB"
       height="1.054"
       width="1.054"
       y="-.027"
       x="-.027"
       id="filter861">
      <feGaussianBlur
         id="feGaussianBlur7"
         stdDeviation="0.16371" />
    </filter>
    <style
       id="style4"
       type="text/css" />
    <filter
       color-interpolation-filters="sRGB"
       height="1.048"
       width="1.048"
       y="-.024"
       x="-.024"
       id="filter2761">
      <feGaussianBlur
         id="feGaussianBlur6"
         stdDeviation="0.14552168" />
    </filter>
    <linearGradient
       gradientUnits="userSpaceOnUse"
       gradientTransform="matrix(3.7796,0,0,3.7796,110.07575,0.53066)"
       y2="1.1082"
       y1="15.429"
       x2="15.644"
       x1="1.2573"
       id="linearGradient4673">
      <stop
         id="stop9-36"
         offset="0"
         stop-color="#32dcff" />
      <stop
         id="stop11"
         offset="1"
         stop-color="#3296ff" />
    </linearGradient>
    <linearGradient
       gradientUnits="userSpaceOnUse"
       gradientTransform="matrix(1.0000066,0,0,1.0000066,19.187825,0)"
       y2="1.0583"
       y1="6.879"
       x2="7.9373"
       x1="7.9373"
       id="linearGradient865">
      <stop
         id="stop2-7"
         offset="0"
         stop-color="#fff" />
      <stop
         id="stop4-53"
         offset="1"
         stop-color="#fcc" />
    </linearGradient>
    <linearGradient
       gradientTransform="translate(19.187825)"
       gradientUnits="userSpaceOnUse"
       y2="3.9327"
       y1="14.579"
       x2="12.314"
       x1="2.6278"
       id="linearGradient855">
      <stop
         id="stop7-5"
         offset="0"
         stop-color="#d462aa" />
      <stop
         id="stop9-3"
         offset=".15178"
         stop-color="#56c7d9" />
      <stop
         id="stop11-6"
         offset=".33294"
         stop-color="#2da8b8" />
      <stop
         id="stop13"
         offset=".53353"
         stop-color="#72cb6b" />
      <stop
         id="stop15"
         offset=".71019"
         stop-color="#c4dc2b" />
      <stop
         id="stop17"
         offset=".8623"
         stop-color="#f9da3e" />
      <stop
         id="stop19"
         offset="1"
         stop-color="#f69429" />
    </linearGradient>
    <linearGradient
       gradientUnits="userSpaceOnUse"
       gradientTransform="matrix(0.26458,0,0,0.26458,19.187825,0)"
       y2="6.9915"
       y1="19"
       x2="57.008"
       x1="45"
       id="linearGradient910">
      <stop
         id="stop22"
         offset="0"
         stop-color="#fff" />
      <stop
         id="stop24"
         offset="1"
         stop-color="#ffe3cc" />
    </linearGradient>
    <filter
       style="color-interpolation-filters:sRGB"
       id="filter1057"
       x="-0.026999999"
       width="1.054"
       y="-0.026999999"
       height="1.054">
      <feGaussianBlur
         stdDeviation="0.61875"
         id="feGaussianBlur1059" />
    </filter>
    <linearGradient
       xlink:href="#linearGradient1051"
       id="linearGradient1053"
       x1="-127"
       y1="60"
       x2="-72"
       y2="5"
       gradientUnits="userSpaceOnUse"
       gradientTransform="matrix(0.26457812,0,0,0.26457812,34.792023,-0.13493441)" />
    <linearGradient
       id="linearGradient1051">
      <stop
         style="stop-color:#32d7ff;stop-opacity:1"
         offset="0"
         id="stop1047" />
      <stop
         style="stop-color:#329bff;stop-opacity:1"
         offset="1"
         id="stop1049" />
    </linearGradient>
    <style
       type="text/css"
       id="style872" />
    <filter
       id="filter2761-7"
       x="-.024"
       y="-.024"
       width="1.048"
       height="1.048"
       color-interpolation-filters="sRGB">
      <feGaussianBlur
         stdDeviation="0.14552168"
         id="feGaussianBlur874" />
    </filter>
    <style
       id="style4-5"
       type="text/css" />
    <style
       id="style6"
       type="text/css" />
    <style
       id="style8"
       type="text/css" />
    <filter
       color-interpolation-filters="sRGB"
       height="1.048"
       width="1.048"
       y="-.024"
       x="-.024"
       id="filter2761-36">
      <feGaussianBlur
         id="feGaussianBlur10"
         stdDeviation="0.14552168" />
    </filter>
    <linearGradient
       gradientUnits="userSpaceOnUse"
       gradientTransform="matrix(3.7796,0,0,3.7796,111.78704,0.53107)"
       y2="1.17"
       y1="15.576"
       x2="15.65"
       x1="1.3315"
       id="linearGradient1024-6">
      <stop
         id="stop13-7"
         offset="0"
         stop-color="#00dc96" />
      <stop
         id="stop15-5"
         offset="1"
         stop-color="#14d29b" />
    </linearGradient>
    <linearGradient
       gradientUnits="userSpaceOnUse"
       gradientTransform="matrix(0.27476,0,0,0.27476,-24.952118,-0.32515)"
       y2="12.461"
       y1="57.955"
       x2="45.628"
       x1="45.628"
       id="b-6">
      <stop
         id="stop2-3-2"
         offset="0" />
      <stop
         id="stop4-5"
         offset="1"
         stop-opacity="0" />
    </linearGradient>
    <style
       type="text/css"
       id="style872-0" />
    <style
       type="text/css"
       id="style874" />
    <style
       type="text/css"
       id="style876" />
    <filter
       id="filter2761-3"
       x="-.024"
       y="-.024"
       width="1.048"
       height="1.048"
       color-interpolation-filters="sRGB">
      <feGaussianBlur
         stdDeviation="0.14552168"
         id="feGaussianBlur878" />
    </filter>
    <linearGradient
       id="linearGradient1024-6-6"
       x1="1.3315"
       x2="15.65"
       y1="15.576"
       y2="1.17"
       gradientTransform="matrix(3.7796,0,0,3.7796,-0.0020773,0.53047)"
       gradientUnits="userSpaceOnUse">
      <stop
         stop-color="#00dc96"
         offset="0"
         id="stop881" />
      <stop
         stop-color="#14d29b"
         offset="1"
         id="stop883" />
    </linearGradient>
    <linearGradient
       id="g"
       gradientUnits="userSpaceOnUse"
       x1="0"
       y1="506"
       x2="0"
       y2="1588"
       gradientTransform="matrix(0.00990325,0,0,0.00990325,-0.03629816,-12.613355)">
      <stop
         offset="0"
         stop-color="#46D4FF"
         id="stop2-367" />
      <stop
         offset="1"
         stop-color="#1792FF"
         id="stop4-535" />
    </linearGradient>
    <filter
       style="color-interpolation-filters:sRGB"
       id="filter1052"
       x="-0.083050094"
       y="-0.15718426"
       width="1.1661002"
       height="1.3143685">
      <feGaussianBlur
         stdDeviation="0.38097064"
         id="feGaussianBlur1054" />
    </filter>
  </defs>
  <rect
     ry="15"
     y="4.4999995"
     x="4.4999995"
     height="55"
     width="55"
     id="rect1055"
     style="opacity:0.3;fill:#141414;fill-opacity:1;stroke-width:2.74436;stroke-linecap:round;filter:url(#filter1057)"
     transform="scale(0.26457812)" />
  <rect
     style="fill:url(#linearGradient1053);fill-opacity:1;stroke-width:0.726098;stroke-linecap:round"
     id="rect1045"
     width="14.551796"
     height="14.551796"
     x="1.1906021"
     y="1.1906021"
     ry="3.9686716" />
  <circle
     id="circle16"
     fill="#5e4aa6"
     r="0"
     cy="-348.55322"
     cx="-316.51096"
     style="stroke-width:0.264578" />
  <g
     id="g26"
     stroke-width="0.26458"
     fill="#5e4aa6"
     transform="translate(13.84925,-20.181067)">
    <circle
       id="circle18"
       r="0"
       cy="-338.76999"
       cx="-299.01999" />
    <circle
       id="circle20"
       fill-rule="evenodd"
       r="0"
       cy="-3.9487"
       cx="-8.1062002" />
    <circle
       id="circle22"
       r="0"
       cy="-357.69"
       cx="-278.25" />
    <circle
       id="circle24"
       fill-rule="evenodd"
       r="0"
       cy="-22.858999"
       cx="12.663" />
  </g>
  <path
     fill="url(#g)"
     d="M 13.316309,10.313331 C 12.809538,9.378169 12.37369,8.7097068 11.647508,8.0307717 11.413931,7.8123936 11.192671,7.6172462 10.962304,7.4420772 l 2.63e-4,5.28e-5 c 0,0 -0.0018,-0.00129 -0.0052,-0.00376 -0.0042,-0.00315 -0.0083,-0.0063 -0.01248,-0.00945 -0.0855,-0.066015 -0.44845,-0.3714134 -0.3195,-0.7085961 0.141502,-0.3700045 0.938457,-0.5353781 0.938457,-0.5353781 0,0 -0.390644,-0.1327184 -1.074213,-0.088869 C 9.8481346,6.1372385 9.2717073,6.5123776 9.1639513,6.5651132 8.818446,6.4662118 8.424232,6.3789928 7.9631964,6.3007736 6.3685503,6.0302244 5.0189487,6.4615022 4.3417283,6.9315427 3.454103,7.5476188 3.4786617,8.1216739 3.4054855,8.4088089 3.3528304,8.6154291 2.8173823,9.0258526 2.9993954,9.249478 3.1129527,9.3889918 3.4908444,9.1995381 3.795689,9.0741529 4.1161944,8.9423217 4.1408929,8.8706133 5.0168143,8.7399217 5.419797,8.6797937 5.8439137,8.6625417 6.1596721,8.6598907 6.2825464,8.9193488 6.5880522,9.4526735 7.1173609,9.7084862 7.8320481,10.053889 8.724889,10.049545 8.724889,10.049545 c 0,0 -0.5130782,-0.2131568 -0.828729,-0.5287865 C 7.6813337,9.3059612 7.6299259,8.9796922 7.6189906,8.7931255 l 0.00193,1.748e-4 c 0.5171583,0.098267 0.9688824,0.1691801 2.049194,0.5829203 0.9452264,0.3620056 1.5908884,0.8884584 1.5908884,0.8884584 0,0 -0.663855,-0.8278357 -1.7841924,-1.3804072 C 8.556919,8.4305642 7.8016462,8.2064013 6.75519,8.1556495 5.6113592,8.1001718 4.7685449,8.2470403 4.7685449,8.2470403 c 0,0 0.023575,-0.508255 0.8870985,-0.9133182 0.7508802,-0.3522307 1.9321621,-0.4111813 3.2878929,-0.065321 1.9153517,0.4886268 2.5685937,1.3206563 3.3924837,2.1804646 0.876905,0.9151453 1.635167,2.4552543 1.635167,2.4552543 0,0 -0.233808,-0.813734 -0.654882,-1.590764 z"
     id="path1032"
     style="fill:#000000;stroke-width:0.00537624;filter:url(#filter1052);fill-opacity:0.24612254" />
  <path
     fill="#ffffff"
     d="M 13.316309,10.313331 C 12.809538,9.378169 12.37369,8.7097068 11.647508,8.0307717 11.413931,7.8123936 11.192671,7.6172462 10.962304,7.4420772 l 2.63e-4,5.28e-5 c 0,0 -0.0018,-0.00129 -0.0052,-0.00376 -0.0042,-0.00315 -0.0083,-0.0063 -0.01248,-0.00945 -0.0855,-0.066015 -0.44845,-0.3714134 -0.3195,-0.7085961 0.141502,-0.3700045 0.938457,-0.5353781 0.938457,-0.5353781 0,0 -0.390644,-0.1327184 -1.074213,-0.088869 C 9.8481346,6.1372385 9.2717073,6.5123776 9.1639513,6.5651132 8.818446,6.4662118 8.424232,6.3789928 7.9631964,6.3007736 6.3685503,6.0302244 5.0189487,6.4615022 4.3417283,6.9315427 3.454103,7.5476188 3.4786617,8.1216739 3.4054855,8.4088089 3.3528304,8.6154291 2.8173823,9.0258526 2.9993954,9.249478 3.1129527,9.3889918 3.4908444,9.1995381 3.795689,9.0741529 4.1161944,8.9423217 4.1408929,8.8706133 5.0168143,8.7399217 5.419797,8.6797937 5.8439137,8.6625417 6.1596721,8.6598907 6.2825464,8.9193488 6.5880522,9.4526735 7.1173609,9.7084862 7.8320481,10.053889 8.724889,10.049545 8.724889,10.049545 c 0,0 -0.5130782,-0.2131568 -0.828729,-0.5287865 C 7.6813337,9.3059612 7.6299259,8.9796922 7.6189906,8.7931255 l 0.00193,1.748e-4 c 0.5171583,0.098267 0.9688824,0.1691801 2.049194,0.5829203 0.9452264,0.3620056 1.5908884,0.8884584 1.5908884,0.8884584 0,0 -0.663855,-0.8278357 -1.7841924,-1.3804072 C 8.556919,8.4305642 7.8016462,8.2064013 6.75519,8.1556495 5.6113592,8.1001718 4.7685449,8.2470403 4.7685449,8.2470403 c 0,0 0.023575,-0.508255 0.8870985,-0.9133182 0.7508802,-0.3522307 1.9321621,-0.4111813 3.2878929,-0.065321 1.9153517,0.4886268 2.5685937,1.3206563 3.3924837,2.1804646 0.876905,0.9151453 1.635167,2.4552543 1.635167,2.4552543 0,0 -0.233808,-0.813734 -0.654882,-1.590764 z"
     id="path9"
     style="fill:#ffffff;stroke-width:0.00537624" />
</svg>
