<?xml version="1.0" encoding="UTF-8" standalone="no"?>
<svg
   width="64"
   height="64"
   version="1.1"
   viewBox="0 0 16.933 16.933"
   id="svg22"
   xmlns="http://www.w3.org/2000/svg"
   xmlns:svg="http://www.w3.org/2000/svg"
   xmlns:rdf="http://www.w3.org/1999/02/22-rdf-syntax-ns#"
   xmlns:cc="http://creativecommons.org/ns#"
   xmlns:dc="http://purl.org/dc/elements/1.1/">
  <defs
     id="defs10">
    <filter
       id="filter1057"
       x="-0.026999999"
       y="-0.026999999"
       width="1.054"
       height="1.054"
       color-interpolation-filters="sRGB">
      <feGaussianBlur
         stdDeviation="0.61875"
         id="feGaussianBlur2" />
    </filter>
    <linearGradient
       id="linearGradient1053"
       x1="-127"
       x2="-72"
       y1="60"
       y2="5"
       gradientTransform="matrix(.26458 0 0 .26458 36.059 -2.0815)"
       gradientUnits="userSpaceOnUse">
      <stop
         stop-color="#dee0e2"
         offset="0"
         id="stop5" />
      <stop
         stop-color="#f1f3f5"
         stop-opacity=".99608"
         offset="1"
         id="stop7" />
    </linearGradient>
  </defs>
  <metadata
     id="metadata12">
    <rdf:RDF>
      <cc:Work
         rdf:about="">
        <dc:format>image/svg+xml</dc:format>
        <dc:type
           rdf:resource="http://purl.org/dc/dcmitype/StillImage" />
      </cc:Work>
    </rdf:RDF>
  </metadata>
  <g
     transform="translate(-1.2662 1.9466)"
     id="g20">
    <rect
       transform="matrix(.26458 0 0 .26458 1.2662 -1.9466)"
       x="4.5"
       y="4.5"
       width="55"
       height="55"
       ry="15"
       fill="#141414"
       filter="url(#filter1057)"
       opacity=".3"
       stroke-linecap="round"
       stroke-width="2.7444"
       id="rect14" />
    <rect
       x="2.4568"
       y="-.75595"
       width="14.552"
       height="14.552"
       ry="3.9687"
       fill="url(#linearGradient1053)"
       stroke-linecap="round"
       stroke-width=".72611"
       id="rect16" />
  </g>
  <g
     id="g1224"
     transform="matrix(1.2709126,0,0,1.2709126,-18.527631,-3.7666348)">
    <path
       d="m 22.483206,6.2401715 c 0.362451,0 0.694697,0.120817 0.86082,0.3284711 0.407758,-0.4115328 0.789086,-0.5247987 1.117557,-0.5247987 0.528575,0 0.694698,0.3360222 0.694698,0.5587785 0,0.2793892 -0.17745,0.4757168 -0.445513,0.4757168 -0.290715,0 -0.147245,-0.6644933 -0.558778,-0.6644933 -0.336022,0 -0.615411,0.8872495 -0.755106,1.6612332 h 0.724902 c 0.08306,0 0.09816,0.060408 0.09816,0.1245925 0,0.1736746 -0.07929,0.3209196 -0.222756,0.3209196 h -0.713572 c 0,0 -0.328026,1.5524638 -0.570105,2.5220538 -0.325824,1.305012 -1.325211,1.668785 -1.951949,1.668785 -0.298267,0 -0.615411,-0.105715 -0.826841,-0.324696 -0.283165,0.290716 -0.713575,0.521023 -1.17419,0.521023 -0.226532,0 -0.604085,-0.151021 -0.604085,-0.437961 0,-0.162348 0.162348,-0.407757 0.336022,-0.407757 0.305818,0 0.343574,0.332246 0.687147,0.332246 0.166123,0 0.281269,-0.04583 0.419084,-0.543676 0.302042,-1.091128 0.758881,-3.3300178 0.758881,-3.3300178 h -0.539901 c -0.08684,0 -0.09816,-0.05286 -0.09816,-0.10949 0,-0.1510211 0.05663,-0.3360221 0.249185,-0.3360221 h 0.502145 c 0.275614,-0.947658 0.88725,-1.8349076 2.012358,-1.8349076 z m -0.294492,0.377553 c -0.532349,0 -0.773983,0.883474 -0.891025,1.4573546 h 1.261027 C 22.649329,7.7277303 22.80035,7.3728305 22.962698,7.0821147 22.781473,6.7951744 22.468104,6.6177245 22.188714,6.6177245 Z m -1.132659,5.6330905 c 0.294492,0 0.528575,-0.09816 0.672045,-0.611636 0.339797,-1.223272 0.71735,-3.1185878 0.71735,-3.1185878 h -1.245925 c -0.180942,0.835416 -0.380399,1.7359698 -0.55569,2.4125638 -0.11928,0.460418 -0.219411,0.718967 -0.324008,0.936332 0.215205,0.25296 0.494594,0.381328 0.736228,0.381328 z"
       fill="#232c31"
       fill-rule="nonzero"
       id="path1048"
       style="stroke-width:0.00377553" />
    <path
       d="m 20.661797,13.728319 -0.01195,0.298102 c -0.05431,-0.0021 -0.108614,-0.0043 -0.162869,-0.0066 l 0.0119,-0.297909 -0.298102,-0.01195 0.0066,-0.16287 0.298154,0.01176 0.01171,-0.297961 0.163114,0.0064 -0.008,0.198314 1.174575,-1.084326 c -0.03485,-0.06856 -0.04406,-0.150135 -0.01934,-0.229244 0.05026,-0.16131 0.221597,-0.251248 0.382713,-0.201037 0.02486,0.0077 0.04792,0.01823 0.06891,0.0311 l 1.193008,-1.101338 -0.188716,-0.0075 0.0066,-0.162869 0.298102,0.01195 0.01195,-0.298102 0.16287,0.0066 -0.0119,0.297909 0.298103,0.01195 -0.0066,0.16287 -0.298154,-0.01176 -0.01171,0.297961 c -0.0545,-0.0022 -0.108807,-0.0043 -0.163115,-0.0064 l 0.0071,-0.177223 -1.18621,1.09529 c 0.03615,0.06912 0.04582,0.152058 0.02098,0.232378 -0.05026,0.16131 -0.221597,0.251247 -0.382907,0.200984 -0.02583,-0.008 -0.04995,-0.01918 -0.07194,-0.03294 l -1.157767,1.068743 0.167572,0.0068 -0.0066,0.162869 z"
       fill="#ff5900"
       stroke="#cc4700"
       stroke-width="0.0260034"
       id="path1050" />
  </g>
</svg>
