<?xml version="1.0" encoding="UTF-8" standalone="no"?>
<svg
   width="64"
   height="64"
   version="1"
   id="svg18"
   sodipodi:docname="ghidra.svg"
   inkscape:version="1.1 (c68e22c387, 2021-05-23)"
   inkscape:export-filename="/home/lyndsay/media/ghidra.png"
   inkscape:export-xdpi="96"
   inkscape:export-ydpi="96"
   xmlns:inkscape="http://www.inkscape.org/namespaces/inkscape"
   xmlns:sodipodi="http://sodipodi.sourceforge.net/DTD/sodipodi-0.dtd"
   xmlns:xlink="http://www.w3.org/1999/xlink"
   xmlns="http://www.w3.org/2000/svg"
   xmlns:svg="http://www.w3.org/2000/svg">
  <sodipodi:namedview
     id="namedview20"
     pagecolor="#ffffff"
     bordercolor="#666666"
     borderopacity="1.0"
     inkscape:pageshadow="2"
     inkscape:pageopacity="0.0"
     inkscape:pagecheckerboard="0"
     showgrid="false"
     inkscape:snap-global="false"
     inkscape:zoom="7.2920387"
     inkscape:cx="21.256058"
     inkscape:cy="27.83858"
     inkscape:window-width="1732"
     inkscape:window-height="928"
     inkscape:window-x="98"
     inkscape:window-y="44"
     inkscape:window-maximized="1"
     inkscape:current-layer="svg18" />
  <defs
     id="defs10">
    <linearGradient
       inkscape:collect="always"
       id="linearGradient2089">
      <stop
         style="stop-color:#ffffff;stop-opacity:1"
         offset="0"
         id="stop2085" />
      <stop
         style="stop-color:#f8f8f8;stop-opacity:1"
         offset="1"
         id="stop2087" />
    </linearGradient>
    <linearGradient
       inkscape:collect="always"
       id="linearGradient28560">
      <stop
         style="stop-color:#ffffff;stop-opacity:1"
         offset="0"
         id="stop28556" />
      <stop
         style="stop-color:#e6e6e6;stop-opacity:1"
         offset="1"
         id="stop28558" />
    </linearGradient>
    <linearGradient
       id="linearGradient1123"
       x1="59.5"
       x2="4.5"
       y1="4.5"
       y2="59.5"
       gradientUnits="userSpaceOnUse">
      <stop
         stop-color="#f83f3f"
         offset="0"
         id="stop2" />
      <stop
         stop-color="#df2a2a"
         offset="1"
         id="stop4" />
    </linearGradient>
    <filter
       id="filter2076"
       x="-0.048000001"
       y="-0.048000001"
       width="1.096"
       height="1.096"
       color-interpolation-filters="sRGB">
      <feGaussianBlur
         stdDeviation="1.1"
         id="feGaussianBlur7" />
    </filter>
    <filter
       inkscape:collect="always"
       style="color-interpolation-filters:sRGB"
       id="filter28156"
       x="-0.15553406"
       y="-0.14343442"
       width="1.3110681"
       height="1.2868688">
      <feGaussianBlur
         inkscape:collect="always"
         stdDeviation="2.3992534"
         id="feGaussianBlur28158" />
    </filter>
    <linearGradient
       inkscape:collect="always"
       xlink:href="#linearGradient2089"
       id="linearGradient29280"
       gradientUnits="userSpaceOnUse"
       x1="43.934769"
       y1="28.718561"
       x2="17.208824"
       y2="53.211262"
       gradientTransform="matrix(0.88894732,0,0,0.88894732,3.5224408,3.7777079)" />
    <linearGradient
       inkscape:collect="always"
       xlink:href="#linearGradient28560"
       id="linearGradient29282"
       gradientUnits="userSpaceOnUse"
       x1="43.934769"
       y1="28.718561"
       x2="17.208824"
       y2="53.211262"
       gradientTransform="matrix(0.88894732,0,0,0.88894732,3.5224408,3.7777079)" />
    <linearGradient
       inkscape:collect="always"
       xlink:href="#linearGradient28560"
       id="linearGradient29284"
       gradientUnits="userSpaceOnUse"
       x1="43.934769"
       y1="28.718561"
       x2="17.208824"
       y2="53.211262"
       gradientTransform="matrix(0.88894732,0,0,0.88894732,3.5224408,3.7777079)" />
    <linearGradient
       inkscape:collect="always"
       xlink:href="#linearGradient28560"
       id="linearGradient29286"
       gradientUnits="userSpaceOnUse"
       x1="43.934769"
       y1="28.718561"
       x2="17.208824"
       y2="53.211262"
       gradientTransform="matrix(0.88894732,0,0,0.88894732,3.5224408,3.7777079)" />
    <linearGradient
       inkscape:collect="always"
       xlink:href="#linearGradient28560"
       id="linearGradient29288"
       gradientUnits="userSpaceOnUse"
       x1="43.934769"
       y1="28.718561"
       x2="17.208824"
       y2="53.211262"
       gradientTransform="matrix(0.88894732,0,0,0.88894732,3.5224408,3.7777079)" />
    <linearGradient
       inkscape:collect="always"
       xlink:href="#linearGradient28560"
       id="linearGradient29290"
       gradientUnits="userSpaceOnUse"
       x1="43.934769"
       y1="28.718561"
       x2="17.208824"
       y2="53.211262"
       gradientTransform="matrix(0.88894732,0,0,0.88894732,3.5224408,3.7777079)" />
    <linearGradient
       inkscape:collect="always"
       xlink:href="#linearGradient28560"
       id="linearGradient29292"
       gradientUnits="userSpaceOnUse"
       x1="43.934769"
       y1="28.718561"
       x2="17.208824"
       y2="53.211262"
       gradientTransform="matrix(0.88894732,0,0,0.88894732,3.5224408,3.7777079)" />
    <linearGradient
       inkscape:collect="always"
       xlink:href="#linearGradient28560"
       id="linearGradient29294"
       gradientUnits="userSpaceOnUse"
       x1="43.934769"
       y1="28.718561"
       x2="17.208824"
       y2="53.211262"
       gradientTransform="matrix(0.88894732,0,0,0.88894732,3.5224408,3.7777079)" />
    <linearGradient
       inkscape:collect="always"
       xlink:href="#linearGradient2089"
       id="linearGradient29342"
       gradientUnits="userSpaceOnUse"
       x1="43.934769"
       y1="28.718561"
       x2="17.208824"
       y2="53.211262"
       gradientTransform="matrix(0.88894732,0,0,0.88894732,3.5224408,3.7777079)" />
  </defs>
  <rect
     x="4.5"
     y="4.5"
     width="55"
     height="55"
     rx="13.002"
     ry="13.002"
     filter="url(#filter2076)"
     opacity=".3"
     id="rect12" />
  <path
     d="m19.5 4.5c-8.31 0-15 6.69-15 15v25c0 8.31 6.69 15 15 15h25c8.31 0 15-6.69 15-15v-25c0-8.31-6.69-15-15-15z"
     fill="url(#linearGradient1123)"
     stroke-linecap="round"
     stroke-width=".5"
     style="paint-order:stroke fill markers"
     id="path14" />
  <g
     id="g28010"
     transform="matrix(0.88894732,0,0,0.88894732,3.5224408,3.7777079)"
     style="fill:#3e3e3e;fill-opacity:1;filter:url(#filter28156);opacity:0.50422316">
    <path
       style="fill:#3e3e3e;stroke:none;stroke-width:0.328591;stroke-linecap:butt;stroke-linejoin:miter;stroke-miterlimit:4;stroke-dasharray:none;stroke-opacity:1;fill-opacity:1"
       d="m 14.114693,39.28419 c 1.624427,7.549057 11.002769,15.041568 22.91354,11.850666 7.081929,-1.897252 13.44966,-8.548686 14.05358,-18.193245 0.14893,-2.378487 -0.13418,-4.417206 -0.69167,-6.290241 -0.76235,-2.561348 -2.16141,-4.809894 -4.98426,-7.178605 -0.10713,-0.107959 -1.45293,-1.004117 -1.4264,-1.014004 0.80597,-0.300287 2.92573,0.685934 3.90183,1.24665 -0.36992,-0.403214 -1.68063,-1.273948 -2.28239,-1.754401 -0.70668,-0.564228 -2.01575,-1.035909 -3.24097,-1.183257 -0.78509,-0.09442 -1.46902,-0.159334 -2.00946,0.09382 -0.17749,-0.276461 1.00665,-0.536968 2.14023,-0.483798 1.02461,0.04805 2.03279,0.337308 2.02848,0.332416 -0.80025,-0.907803 -2.68238,-1.800879 -4.59313,-2.098759 -1.67722,-0.261472 -3.47262,-0.09568 -4.29177,-0.0719 -1.19022,0.03456 3.39755,-1.3258 5.94571,0.139078 0.15955,0.09172 -0.31278,-0.194309 -0.47359,-0.283817 -2.08207,-1.158911 -4.19279,-2.063867 -6.91168,-1.910525 -2.49021,0.140444 -4.35009,1.225329 -4.36907,1.132479 -0.0828,-0.405598 1.2751,-1.04743 1.73238,-1.240619 0.57236,-0.24181 2.50407,-0.296863 1.88273,-0.298752 -0.92027,-0.0028 0.54589,0.04074 -1.78795,-0.292234 -0.88865,-0.126787 -2.25291,0.06586 -3.12608,0.261009 -2.29468,0.51285 -4.63526,2.143883 -5.74243,5.145542 -0.39238,0.0389 -1.37822,0.01926 -1.99336,0.178519 -0.28249,0.07313 -0.43667,0.271655 -0.52703,0.394671 -0.35192,0.479139 -0.30696,2.556477 -1.08715,3.708739 -0.71323,1.053365 -3.14042,1.548277 -4.13836,2.656997 -0.19333,0.214784 -0.22807,0.555479 -0.32745,0.86516 -0.17244,0.537308 -0.21796,1.204492 -0.0758,2.047357 0.10493,0.621937 0.79327,1.359509 1.39656,2.11209 -0.42983,-0.596179 -0.18295,-1.245705 -0.18295,-1.897064 0,-2.168463 1.26245,1.335235 2.76867,0.331089 0.15596,-0.103975 -0.82225,-0.991228 -0.82225,-1.787959 0,-0.136937 0.11721,0.250053 0.20145,0.358012 0.22721,0.291185 1.02304,0.365348 1.38674,0.289546 1.53078,-0.319049 -0.9539,-0.933075 -0.17626,-1.668122 0.47712,-0.450983 1.47701,0.671826 1.98075,-0.575166 0.1408,-1.099992 1.09699,-1.964371 2.22376,-1.964371 0.12179,0 -1.7826,0.653674 -1.58895,1.84124 0.12332,0.756298 1.11494,1.225005 1.39131,1.871286 1.31059,3.064712 0.25427,3.965701 -2.61556,3.965701 -0.0169,0 0.8653,0.638379 1.61008,1.308685 0.68914,0.620224 2.3645,0.733239 3.1777,0.326582 1.17405,-0.587118 1.91426,-6.005772 2.15269,-7.711082 3.55375,-0.383405 1.28503,-4.464561 0.4139,-6.035395 -0.0522,-0.09417 0.19003,0.101658 0.28131,0.158787 0.53539,0.335118 1.33264,0.724302 1.73019,1.215833 0.51992,0.642823 0.83305,1.043372 1.30562,1.181068 0.70275,0.204778 1.53949,0.148067 2.72084,0.656923 1.87732,0.808639 3.44111,1.598523 4.67321,2.800382 1.39078,1.356646 2.42636,2.997039 2.82531,5.234121 C 43.313573,39.296056 33.640618,44.01431 24.754899,43.193355 21.184704,42.863503 13.711311,38.181732 14.114693,39.28419 Z"
       id="path27934"
       sodipodi:nodetypes="cssscsssssssssssscsscscssssszcsssssscsssssscssssssssc" />
    <path
       fill="#3e3e3e"
       d="m 20.523603,20.975725 c 0.18863,-0.228363 0.17398,-0.53095 0.23889,-0.803385 0.1373,-0.576206 0.33716,-1.162458 0.44754,-1.732132 0.004,-0.01939 0.0521,-0.257685 0.056,-0.252871 0.30818,0.387967 0.19631,0.960336 0.36411,1.396812 0.0797,0.207349 0.39832,0.585701 0.18311,0.640786 -0.54185,0.138694 -0.91577,0.336161 -1.28961,0.75079 z"
       id="path27936" />
    <rect
       style="opacity:1;fill:#3e3e3e;stroke:none;stroke-width:0.305418;stroke-linecap:round;stroke-linejoin:bevel;stroke-miterlimit:4.5;stroke-dasharray:none;fill-opacity:1"
       id="rect27962"
       width="0.62597024"
       height="0.62597024"
       x="16.45043"
       y="38.311623" />
    <rect
       style="opacity:1;fill:#3e3e3e;stroke:none;stroke-width:0.305418;stroke-linecap:round;stroke-linejoin:bevel;stroke-miterlimit:4.5;stroke-dasharray:none;fill-opacity:1"
       id="rect27964"
       width="0.62597024"
       height="0.62597024"
       x="15.879694"
       y="37.354813" />
    <rect
       style="opacity:1;fill:#3e3e3e;stroke:none;stroke-width:0.305418;stroke-linecap:round;stroke-linejoin:bevel;stroke-miterlimit:4.5;stroke-dasharray:none;fill-opacity:1"
       id="rect27966"
       width="0.62597024"
       height="0.62597024"
       x="14.921496"
       y="36.910622" />
    <rect
       style="opacity:1;fill:#3e3e3e;stroke:none;stroke-width:0.305418;stroke-linecap:round;stroke-linejoin:bevel;stroke-miterlimit:4.5;stroke-dasharray:none;fill-opacity:1"
       id="rect27968"
       width="0.62597024"
       height="0.62597024"
       x="14.4453"
       y="37.920738" />
    <rect
       style="opacity:1;fill:#3e3e3e;stroke:none;stroke-width:0.305418;stroke-linecap:round;stroke-linejoin:bevel;stroke-miterlimit:4.5;stroke-dasharray:none;fill-opacity:1"
       id="rect27970"
       width="0.62597024"
       height="0.62597024"
       x="14.964309"
       y="38.836006" />
    <rect
       style="opacity:1;fill:#3e3e3e;stroke:none;stroke-width:0.305418;stroke-linecap:round;stroke-linejoin:bevel;stroke-miterlimit:4.5;stroke-dasharray:none;fill-opacity:1"
       id="rect27972"
       width="0.62597024"
       height="0.62597024"
       x="15.885244"
       y="39.342373" />
    <rect
       style="opacity:1;fill:#3e3e3e;stroke:none;stroke-width:0.305418;stroke-linecap:round;stroke-linejoin:bevel;stroke-miterlimit:4.5;stroke-dasharray:none;fill-opacity:1"
       id="rect27974"
       width="0.62597024"
       height="0.62597024"
       x="17.106014"
       y="39.466938" />
    <rect
       style="opacity:1;fill:#3e3e3e;stroke:none;stroke-width:0.305418;stroke-linecap:round;stroke-linejoin:bevel;stroke-miterlimit:4.5;stroke-dasharray:none;fill-opacity:1"
       id="rect27976"
       width="0.62597024"
       height="0.62597024"
       x="17.423538"
       y="40.208298" />
    <rect
       style="opacity:1;fill:#3e3e3e;stroke:none;stroke-width:0.305418;stroke-linecap:round;stroke-linejoin:bevel;stroke-miterlimit:4.5;stroke-dasharray:none;fill-opacity:1"
       id="rect27978"
       width="0.62597024"
       height="0.62597024"
       x="19.731985"
       y="39.466938" />
    <rect
       style="opacity:1;fill:#3e3e3e;stroke:none;stroke-width:0.305418;stroke-linecap:round;stroke-linejoin:bevel;stroke-miterlimit:4.5;stroke-dasharray:none;fill-opacity:1"
       id="rect27980"
       width="0.62597024"
       height="0.62597024"
       x="16.511215"
       y="39.968342" />
    <rect
       style="opacity:1;fill:#3e3e3e;stroke:none;stroke-width:0.305418;stroke-linecap:round;stroke-linejoin:bevel;stroke-miterlimit:4.5;stroke-dasharray:none;fill-opacity:1"
       id="rect27982"
       width="0.62597024"
       height="0.62597024"
       x="15.590279"
       y="38.210037" />
    <rect
       style="opacity:1;fill:#3e3e3e;stroke:none;stroke-width:0.305418;stroke-linecap:round;stroke-linejoin:bevel;stroke-miterlimit:4.5;stroke-dasharray:none;fill-opacity:1"
       id="rect27984"
       width="0.62597024"
       height="0.62597024"
       x="14.114693"
       y="38.658222" />
    <rect
       style="opacity:1;fill:#3e3e3e;stroke:none;stroke-width:0.305418;stroke-linecap:round;stroke-linejoin:bevel;stroke-miterlimit:4.5;stroke-dasharray:none;fill-opacity:1"
       id="rect27986"
       width="0.62597024"
       height="0.62597024"
       x="18.418425"
       y="40.549732" />
    <rect
       style="opacity:1;fill:#3e3e3e;stroke:none;stroke-width:0.305418;stroke-linecap:round;stroke-linejoin:bevel;stroke-miterlimit:4.5;stroke-dasharray:none;fill-opacity:1"
       id="rect27988"
       width="0.62597024"
       height="0.62597024"
       x="20.525314"
       y="41.527836" />
    <rect
       style="opacity:1;fill:#3e3e3e;stroke:none;stroke-width:0.305418;stroke-linecap:round;stroke-linejoin:bevel;stroke-miterlimit:4.5;stroke-dasharray:none;fill-opacity:1"
       id="rect27990"
       width="0.62597024"
       height="0.62597024"
       x="19.539289"
       y="41.158073" />
    <rect
       style="opacity:1;fill:#3e3e3e;stroke:none;stroke-width:0.305418;stroke-linecap:round;stroke-linejoin:bevel;stroke-miterlimit:4.5;stroke-dasharray:none;fill-opacity:1"
       id="rect27992"
       width="0.62597024"
       height="0.62597024"
       x="19.378296"
       y="40.33511" />
    <rect
       style="opacity:1;fill:#3e3e3e;stroke:none;stroke-width:0.305418;stroke-linecap:round;stroke-linejoin:bevel;stroke-miterlimit:4.5;stroke-dasharray:none;fill-opacity:1"
       id="rect27994"
       width="0.62597024"
       height="0.62597024"
       x="20.279028"
       y="40.729332" />
    <rect
       style="opacity:1;fill:#3e3e3e;stroke:none;stroke-width:0.305418;stroke-linecap:round;stroke-linejoin:bevel;stroke-miterlimit:4.5;stroke-dasharray:none;fill-opacity:1"
       id="rect27996"
       width="0.62597024"
       height="0.62597024"
       x="21.223515"
       y="42.030464" />
    <rect
       style="opacity:1;fill:#3e3e3e;stroke:none;stroke-width:0.305418;stroke-linecap:round;stroke-linejoin:bevel;stroke-miterlimit:4.5;stroke-dasharray:none;fill-opacity:1"
       id="rect27998"
       width="0.62597024"
       height="0.62597024"
       x="21.055674"
       y="40.795883" />
    <rect
       style="opacity:1;fill:#3e3e3e;stroke:none;stroke-width:0.305418;stroke-linecap:round;stroke-linejoin:bevel;stroke-miterlimit:4.5;stroke-dasharray:none;fill-opacity:1"
       id="rect28000"
       width="0.62597024"
       height="0.62597024"
       x="20.382462"
       y="39.976887" />
    <rect
       style="opacity:1;fill:#3e3e3e;stroke:none;stroke-width:0.305418;stroke-linecap:round;stroke-linejoin:bevel;stroke-miterlimit:4.5;stroke-dasharray:none;fill-opacity:1"
       id="rect28002"
       width="0.62597024"
       height="0.62597024"
       x="20.194107"
       y="38.544289" />
    <rect
       style="opacity:1;fill:#3e3e3e;stroke:none;stroke-width:0.305418;stroke-linecap:round;stroke-linejoin:bevel;stroke-miterlimit:4.5;stroke-dasharray:none;fill-opacity:1"
       id="rect28004"
       width="0.62597024"
       height="0.62597024"
       x="18.540222"
       y="39.703728" />
    <rect
       style="opacity:1;fill:#3e3e3e;stroke:none;stroke-width:0.305418;stroke-linecap:round;stroke-linejoin:bevel;stroke-miterlimit:4.5;stroke-dasharray:none;fill-opacity:1"
       id="rect28006"
       width="0.62597024"
       height="0.62597024"
       x="17.882002"
       y="38.684734" />
    <rect
       style="opacity:1;fill:#3e3e3e;stroke:none;stroke-width:0.305418;stroke-linecap:round;stroke-linejoin:bevel;stroke-miterlimit:4.5;stroke-dasharray:none;fill-opacity:1"
       id="rect28008"
       width="0.62597024"
       height="0.62597024"
       x="18.955027"
       y="38.601219" />
  </g>
  <g
     id="g29527">
    <path
       style="fill:url(#linearGradient29280);fill-opacity:1;stroke:none;stroke-width:0.2921;stroke-linecap:butt;stroke-linejoin:miter;stroke-miterlimit:4;stroke-dasharray:none;stroke-opacity:1"
       d="m 16.069659,38.699283 c 1.44403,6.710714 9.780882,13.371162 20.36893,10.534618 6.295462,-1.686557 11.95604,-7.599331 12.492893,-16.172836 0.13239,-2.11435 -0.119279,-3.926664 -0.614859,-5.591693 -0.677689,-2.276904 -1.921379,-4.275743 -4.430744,-6.381402 -0.09523,-0.09597 -1.291578,-0.892607 -1.267995,-0.901396 0.716465,-0.266939 2.60082,0.609759 3.468522,1.108206 -0.32884,-0.358436 -1.493992,-1.132472 -2.028925,-1.55957 -0.628201,-0.501569 -1.791895,-0.920868 -2.881051,-1.051853 -0.697904,-0.08393 -1.305882,-0.14164 -1.786304,0.0834 -0.15778,-0.245759 0.894858,-0.477336 1.902551,-0.430071 0.910825,0.04271 1.807043,0.299849 1.803212,0.2955 -0.71138,-0.806989 -2.384494,-1.600886 -4.083051,-1.865686 -1.49096,-0.232435 -3.086976,-0.08505 -3.815157,-0.06392 -1.058043,0.03072 3.020243,-1.178566 5.285423,0.123633 0.141832,0.08153 -0.278045,-0.172731 -0.420997,-0.252298 -1.85085,-1.030211 -3.727169,-1.834669 -6.144119,-1.698357 -2.213665,0.124848 -3.867001,1.089253 -3.883873,1.006715 -0.07361,-0.360556 1.133497,-0.93111 1.539995,-1.102845 0.508797,-0.214957 2.225986,-0.263896 1.673647,-0.265575 -0.818071,-0.0025 0.485268,0.03622 -1.589393,-0.259781 -0.789963,-0.112707 -2.002718,0.05855 -2.77892,0.232024 -2.03985,0.455896 -4.120502,1.905799 -5.104718,4.574115 -0.348805,0.03458 -1.225165,0.01712 -1.771992,0.158694 -0.251119,0.06501 -0.388177,0.241487 -0.468502,0.350842 -0.312839,0.425929 -0.272871,2.272573 -0.966419,3.296874 -0.634024,0.936386 -2.791668,1.376336 -3.678784,2.36193 -0.17186,0.190932 -0.202742,0.493792 -0.291086,0.769082 -0.15329,0.477638 -0.193755,1.07073 -0.06738,1.819992 0.09328,0.552869 0.705175,1.208532 1.241468,1.877537 -0.382096,-0.529972 -0.162633,-1.107366 -0.162633,-1.68639 0,-1.927649 1.122252,1.186954 2.461202,0.294321 0.13864,-0.09243 -0.730937,-0.88115 -0.730937,-1.589402 0,-0.12173 0.104193,0.222284 0.179078,0.318254 0.201978,0.258848 0.909429,0.324775 1.232739,0.257391 1.360783,-0.283618 -0.847967,-0.829454 -0.156686,-1.482872 0.424135,-0.4009 1.312984,0.597218 1.760783,-0.511293 0.125163,-0.977835 0.975166,-1.746222 1.976805,-1.746222 0.108265,0 -1.584637,0.581082 -1.412493,1.636765 0.109625,0.672309 0.991123,1.088965 1.236802,1.663475 1.165045,2.724368 0.226032,3.525299 -2.325095,3.525299 -0.01502,0 0.769206,0.567486 1.431276,1.163352 0.612609,0.551347 2.101916,0.651811 2.824808,0.290315 1.043668,-0.521917 1.701676,-5.338815 1.913628,-6.854746 3.159096,-0.340827 1.142324,-3.96876 0.367935,-5.365148 -0.0464,-0.08371 0.168927,0.09037 0.25007,0.141153 0.475933,0.297902 1.184647,0.643866 1.538048,1.080811 0.462181,0.571436 0.740537,0.927503 1.160627,1.049908 0.624708,0.182037 1.368526,0.131623 2.418683,0.58397 1.668839,0.718837 3.058966,1.421002 4.154238,2.489392 1.23633,1.205987 2.477379,2.633123 2.511552,4.652858 0.206829,12.224348 -9.517406,15.413813 -14.874217,12.567966 -5.35681,-2.845847 -9.817168,-4.455069 -9.458583,-3.475042 z"
       id="path1924"
       sodipodi:nodetypes="cssscsssssssssssscsscscssssszcsssssscsssssscssssssszcc" />
    <path
       style="fill:url(#linearGradient29282);fill-opacity:1;stroke:none;stroke-width:0.365125;stroke-linecap:round;stroke-linejoin:miter;stroke-miterlimit:4.5;stroke-dasharray:none;stroke-opacity:1"
       d="m 21.766843,22.424022 c 0.167682,-0.203002 0.154659,-0.471986 0.21236,-0.714167 0.122053,-0.512216 0.299718,-1.033363 0.39784,-1.539774 0.0036,-0.01724 0.04631,-0.229068 0.04978,-0.224789 0.273956,0.344883 0.174509,0.853688 0.323674,1.241693 0.07085,0.184322 0.354086,0.520657 0.162776,0.569625 -0.481677,0.123291 -0.814072,0.298829 -1.146396,0.667412 z"
       id="path11447" />
    <g
       aria-label="101"
       id="text13147"
       style="font-weight:bold;font-size:1.90379px;line-height:1.25;-inkscape-font-specification:'sans-serif Bold';fill:url(#linearGradient29284);stroke-width:0.0475947" />
    <g
       aria-label="1101"
       id="text15685"
       style="font-weight:bold;font-size:1.90379px;line-height:1.25;-inkscape-font-specification:'sans-serif Bold';fill:url(#linearGradient29286);stroke-width:0.0475947" />
    <g
       aria-label="010"
       id="text17177"
       style="font-weight:bold;font-size:1.90379px;line-height:1.25;-inkscape-font-specification:'sans-serif Bold';fill:url(#linearGradient29288);stroke-width:0.0475947" />
    <g
       aria-label="110"
       id="text18171"
       style="font-weight:bold;font-size:1.90379px;line-height:1.25;-inkscape-font-specification:'sans-serif Bold';fill:url(#linearGradient29290);stroke-width:0.0475947" />
    <g
       aria-label="01"
       id="text19057"
       style="font-weight:bold;font-size:1.90379px;line-height:1.25;-inkscape-font-specification:'sans-serif Bold';fill:url(#linearGradient29292);stroke-width:0.0475947" />
    <g
       aria-label="0"
       id="text19877"
       style="font-weight:bold;font-size:1.90379px;line-height:1.25;-inkscape-font-specification:'sans-serif Bold';fill:url(#linearGradient29294);stroke-width:0.0475947" />
    <path
       id="rect23284"
       style="fill:url(#linearGradient29342);stroke-width:0.271501;stroke-linecap:round;stroke-linejoin:bevel;stroke-miterlimit:4.5;fill-opacity:1.0"
       d="m 20.372461,38.092159 h 0.556455 v 0.556455 h -0.556455 z m -0.953863,0.07424 h 0.556455 v 0.556455 h -0.556455 z m 0.585123,0.905834 h 0.556455 v 0.556455 h -0.556455 z m 1.470217,-1.030681 h 0.556455 v 0.556454 h -0.556455 z m 0.167437,1.273506 h 0.556454 v 0.556454 h -0.556454 z m 0.598451,0.728042 h 0.556455 v 0.556455 h -0.556455 z m 0.149201,1.097477 h 0.556454 V 41.69703 H 22.389027 Z M 21.549429,39.98394 h 0.556455 v 0.556455 h -0.556455 z m -0.800703,-0.350445 h 0.556454 v 0.556455 h -0.556454 z m 0.143114,0.731572 h 0.556455 v 0.556454 H 20.89184 Z m 0.876524,0.328701 h 0.556455 v 0.556454 h -0.556455 z m -1.872913,-0.869484 h 0.556454 v 0.556454 H 19.895451 Z M 16.069658,38.14283 h 0.556455 v 0.556454 h -0.556455 z m 1.311718,-0.398411 h 0.556455 v 0.556455 h -0.556455 z m 0.818665,1.563038 h 0.556454 v 0.556455 h -0.556454 z m 2.863094,-0.445721 h 0.556455 v 0.556455 h -0.556455 z m -2.052086,0.659031 h 0.556455 v 0.556455 h -0.556455 z m -0.282263,-0.659031 h 0.556455 v 0.556455 h -0.556455 z m -1.085199,-0.110733 h 0.556455 v 0.556455 h -0.556455 z m -0.818664,-0.45013 h 0.556454 v 0.556454 h -0.556454 z m -0.461371,-0.813626 h 0.556455 v 0.556455 h -0.556455 z m 0.423313,-0.897941 h 0.556455 v 0.556454 h -0.556455 z m 0.851788,0.394863 h 0.556454 v 0.556455 h -0.556454 z m 0.507353,0.850552 h 0.556454 v 0.556454 h -0.556454 z m 2.859758,-8.855202 q 0,0.218936 -0.04759,0.375047 -0.04569,0.15611 -0.150399,0.239877 -0.102805,0.08377 -0.277954,0.08377 -0.245589,0 -0.359816,-0.184668 -0.114228,-0.186571 -0.114228,-0.514023 0,-0.22084 0.04569,-0.37695 0.04569,-0.156111 0.1504,-0.239878 0.104708,-0.08377 0.277953,-0.08377 0.243685,0 0.359816,0.184668 0.116132,0.184668 0.116132,0.515927 z m -0.664423,0 q 0,0.232262 0.03998,0.350297 0.03998,0.116132 0.148495,0.116132 0.106612,0 0.148496,-0.116132 0.04188,-0.116131 0.04188,-0.350297 0,-0.232262 -0.04188,-0.350297 -0.04188,-0.118035 -0.148496,-0.118035 -0.108516,0 -0.148495,0.118035 -0.03998,0.118035 -0.03998,0.350297 z m 0.351768,2.279913 h -0.287472 v -0.786265 q 0,-0.0495 0.0019,-0.129458 0.0038,-0.07996 0.0057,-0.140881 -0.0095,0.01142 -0.04188,0.04188 -0.03046,0.02856 -0.05711,0.0514 l -0.156111,0.12565 -0.138976,-0.173245 0.437871,-0.348393 h 0.23607 z m -0.856703,-0.679653 q 0,0.218936 -0.04759,0.375046 -0.04569,0.156111 -0.1504,0.239878 -0.102804,0.08377 -0.277953,0.08377 -0.245589,0 -0.359816,-0.184668 -0.114228,-0.186571 -0.114228,-0.514023 0,-0.22084 0.04569,-0.376951 0.04569,-0.15611 0.1504,-0.239877 0.104708,-0.08377 0.277953,-0.08377 0.243685,0 0.359816,0.184668 0.116131,0.184667 0.116131,0.515927 z m -0.664422,0 q 0,0.232262 0.03998,0.350297 0.03998,0.116131 0.148496,0.116131 0.106612,0 0.148495,-0.116131 0.04188,-0.116131 0.04188,-0.350297 0,-0.232263 -0.04188,-0.350298 -0.04188,-0.118035 -0.148495,-0.118035 -0.108516,0 -0.148496,0.118035 -0.03998,0.118035 -0.03998,0.350298 z m 2.320117,1.665373 q 0,0.218936 -0.0476,0.375046 -0.04569,0.156111 -0.150399,0.239878 -0.102805,0.08377 -0.277954,0.08377 -0.245589,0 -0.359816,-0.184668 -0.114227,-0.186571 -0.114227,-0.514023 0,-0.22084 0.04569,-0.376951 0.04569,-0.156111 0.150399,-0.239877 0.104708,-0.08377 0.277953,-0.08377 0.243685,0 0.359817,0.184668 0.116131,0.184667 0.116131,0.515927 z m -0.664423,0 q 0,0.232262 0.03998,0.350297 0.03998,0.116131 0.148495,0.116131 0.106613,0 0.148496,-0.116131 0.04188,-0.116131 0.04188,-0.350297 0,-0.232263 -0.04188,-0.350298 -0.04188,-0.118035 -0.148496,-0.118035 -0.108516,0 -0.148495,0.118035 -0.03998,0.118035 -0.03998,0.350298 z m -0.656805,0.679653 h -0.287472 v -0.786266 q 0,-0.0495 0.0019,-0.129457 0.0038,-0.07996 0.0057,-0.140881 -0.0095,0.01142 -0.04188,0.04188 -0.03046,0.02856 -0.05711,0.0514 l -0.156111,0.12565 -0.138976,-0.173245 0.437871,-0.348393 h 0.23607 z m -1.088965,0 h -0.287472 v -0.786266 q 0,-0.0495 0.0019,-0.129457 0.0038,-0.07996 0.0057,-0.140881 -0.0095,0.01142 -0.04188,0.04188 -0.03046,0.02856 -0.05711,0.0514 l -0.156111,0.12565 -0.138977,-0.173245 0.437872,-0.348393 h 0.23607 z m 1.574055,0.844578 q 0,0.218935 -0.0476,0.375046 -0.04569,0.156111 -0.150399,0.239878 -0.102805,0.08377 -0.277953,0.08377 -0.245589,0 -0.359817,-0.184668 -0.114227,-0.186572 -0.114227,-0.514023 0,-0.22084 0.04569,-0.376951 0.04569,-0.156111 0.150399,-0.239877 0.104709,-0.08377 0.277954,-0.08377 0.243685,0 0.359816,0.184668 0.116131,0.184667 0.116131,0.515927 z m -0.664423,0 q 0,0.232262 0.03998,0.350297 0.03998,0.116131 0.148496,0.116131 0.106612,0 0.148495,-0.116131 0.04188,-0.116131 0.04188,-0.350297 0,-0.232263 -0.04188,-0.350298 -0.04188,-0.118035 -0.148495,-0.118035 -0.108516,0 -0.148496,0.118035 -0.03998,0.118035 -0.03998,0.350298 z m -0.656804,0.679653 H 19.047263 V 33.66277 q 0,-0.0495 0.0019,-0.129457 0.0038,-0.07996 0.0057,-0.140881 -0.0095,0.01142 -0.04188,0.04188 -0.03046,0.02856 -0.05711,0.0514 l -0.15611,0.12565 -0.138977,-0.173245 0.437872,-0.348393 h 0.23607 z m -0.856703,-0.679653 q 0,0.218935 -0.0476,0.375046 -0.04569,0.156111 -0.150399,0.239878 -0.102805,0.08377 -0.277954,0.08377 -0.245589,0 -0.359816,-0.184668 -0.114227,-0.186572 -0.114227,-0.514023 0,-0.22084 0.04569,-0.376951 0.04569,-0.156111 0.1504,-0.239877 0.104708,-0.08377 0.277953,-0.08377 0.243685,0 0.359817,0.184668 0.116131,0.184667 0.116131,0.515927 z m -0.664423,0 q 0,0.232262 0.03998,0.350297 0.03998,0.116131 0.148495,0.116131 0.106612,0 0.148496,-0.116131 0.04188,-0.116131 0.04188,-0.350297 0,-0.232263 -0.04188,-0.350298 -0.04188,-0.118035 -0.148496,-0.118035 -0.108516,0 -0.148495,0.118035 -0.03998,0.118035 -0.03998,0.350298 z m 2.406995,2.335155 h -0.287472 v -0.786265 q 0,-0.0495 0.0019,-0.129458 0.0038,-0.07996 0.0057,-0.14088 -0.0095,0.01142 -0.04188,0.04188 -0.03046,0.02856 -0.05711,0.0514 l -0.156111,0.12565 -0.138977,-0.173245 0.437872,-0.348393 h 0.23607 z m -0.856703,-0.679653 q 0,0.218936 -0.0476,0.375047 -0.04569,0.15611 -0.150399,0.239877 -0.102805,0.08377 -0.277953,0.08377 -0.245589,0 -0.359817,-0.184668 -0.114227,-0.186571 -0.114227,-0.514023 0,-0.22084 0.04569,-0.37695 0.04569,-0.156111 0.150399,-0.239878 0.104709,-0.08377 0.277954,-0.08377 0.243685,0 0.359816,0.184668 0.116131,0.184667 0.116131,0.515927 z m -0.664422,0 q 0,0.232262 0.03998,0.350297 0.03998,0.116131 0.148496,0.116131 0.106612,0 0.148495,-0.116131 0.04188,-0.116131 0.04188,-0.350297 0,-0.232262 -0.04188,-0.350297 -0.04188,-0.118035 -0.148495,-0.118035 -0.108516,0 -0.148496,0.118035 -0.03998,0.118035 -0.03998,0.350297 z m -0.656805,0.679653 h -0.287473 v -0.786265 q 0,-0.0495 0.0019,-0.129458 0.0038,-0.07996 0.0057,-0.14088 -0.0095,0.01142 -0.04188,0.04188 -0.03046,0.02856 -0.05711,0.0514 l -0.15611,0.12565 -0.138977,-0.173245 0.437872,-0.348393 h 0.23607 z m -1.088966,0 h -0.287472 v -0.786265 q 0,-0.0495 0.0019,-0.129458 0.0038,-0.07996 0.0057,-0.14088 -0.0095,0.01142 -0.04188,0.04188 -0.03046,0.02856 -0.05711,0.0514 l -0.15611,0.12565 -0.138977,-0.173245 0.437872,-0.348393 h 0.236069 z m 4.41251,1.73502 h -0.287472 v -0.786266 q 0,-0.0495 0.0019,-0.129457 0.0038,-0.07996 0.0057,-0.140881 -0.0095,0.01142 -0.04188,0.04188 -0.03046,0.02856 -0.05711,0.0514 l -0.156111,0.12565 -0.138977,-0.173245 0.437872,-0.348393 h 0.23607 z m -0.856703,-0.679653 q 0,0.218935 -0.0476,0.375046 -0.04569,0.156111 -0.150399,0.239878 -0.102805,0.08377 -0.277953,0.08377 -0.245589,0 -0.359817,-0.184668 -0.114227,-0.186572 -0.114227,-0.514023 0,-0.22084 0.04569,-0.376951 0.04569,-0.156111 0.150399,-0.239877 0.104709,-0.08377 0.277954,-0.08377 0.243685,0 0.359816,0.184668 0.116131,0.184667 0.116131,0.515927 z m -0.664423,0 q 0,0.232262 0.03998,0.350297 0.03998,0.116131 0.148496,0.116131 0.106612,0 0.148495,-0.116131 0.04188,-0.116131 0.04188,-0.350297 0,-0.232263 -0.04188,-0.350298 -0.04188,-0.118035 -0.148495,-0.118035 -0.108516,0 -0.148496,0.118035 -0.03998,0.118035 -0.03998,0.350298 z m -0.656804,0.679653 h -0.287473 v -0.786266 q 0,-0.0495 0.0019,-0.129457 0.0038,-0.07996 0.0057,-0.140881 -0.0095,0.01142 -0.04188,0.04188 -0.03046,0.02856 -0.05711,0.0514 l -0.15611,0.12565 -0.138977,-0.173245 0.437872,-0.348393 h 0.23607 z" />
    <path
       id="path2355"
       style="fill:url(#linearGradient29342);fill-opacity:1;stroke-width:0.271501;stroke-linecap:round;stroke-linejoin:bevel;stroke-miterlimit:4.5"
       d="m 20.372461,38.092159 h 0.556455 v 0.556455 h -0.556455 z m -0.953863,0.07424 h 0.556455 v 0.556455 h -0.556455 z m 0.585123,0.905834 h 0.556455 v 0.556455 h -0.556455 z m 1.753363,-0.397134 h 0.556455 v 0.556454 h -0.556455 z m -0.115709,0.639959 h 0.556454 v 0.556454 h -0.556454 z m 0.598451,0.728042 h 0.556455 v 0.556455 h -0.556455 z m 0.149201,1.097477 h 0.556454 V 41.69703 H 22.389027 Z M 21.549429,39.98394 h 0.556455 v 0.556455 h -0.556455 z m -0.800703,-0.350445 h 0.556454 v 0.556455 h -0.556454 z m 0.143114,0.731572 h 0.556455 v 0.556454 H 20.89184 Z m 0.876524,0.328701 h 0.556455 v 0.556454 h -0.556455 z m -1.872913,-0.869484 h 0.556454 v 0.556454 H 19.895451 Z M 16.069658,38.14283 h 0.556455 v 0.556454 h -0.556455 z m 1.311718,-0.398411 h 0.556455 v 0.556455 h -0.556455 z m 0.818665,1.563038 h 0.556454 v 0.556455 h -0.556454 z m 2.863094,-0.445721 h 0.556455 v 0.556455 h -0.556455 z m -2.052086,0.659031 h 0.556455 v 0.556455 h -0.556455 z m -0.282263,-0.659031 h 0.556455 v 0.556455 h -0.556455 z m -1.085199,-0.110733 h 0.556455 v 0.556455 h -0.556455 z m -0.818664,-0.45013 h 0.556454 v 0.556454 h -0.556454 z m -0.461371,-0.813626 h 0.556455 v 0.556455 h -0.556455 z m 0.423313,-0.897941 h 0.556455 v 0.556454 h -0.556455 z m 0.851788,0.394863 h 0.556454 v 0.556455 h -0.556454 z m 0.507353,0.850552 h 0.556454 v 0.556454 h -0.556454 z m 2.859758,-8.855202 c 0,0.145957 -0.01586,0.270973 -0.04759,0.375047 -0.03046,0.104073 -0.08059,0.184032 -0.150399,0.239877 -0.06854,0.05585 -0.161188,0.08377 -0.277954,0.08377 -0.163726,0 -0.283665,-0.06156 -0.359816,-0.184668 -0.07615,-0.124381 -0.114228,-0.295722 -0.114228,-0.514023 0,-0.147227 0.01523,-0.272877 0.04569,-0.37695 0.03046,-0.104074 0.08059,-0.184033 0.1504,-0.239878 0.0698,-0.05585 0.162456,-0.08377 0.277953,-0.08377 0.162457,0 0.282395,0.06156 0.359816,0.184668 0.07742,0.123112 0.116132,0.295088 0.116132,0.515927 z m -0.664423,0 c 0,0.154841 0.01333,0.271607 0.03998,0.350297 0.02665,0.07742 0.07615,0.116132 0.148495,0.116132 0.07108,0 0.120573,-0.03871 0.148496,-0.116132 0.02792,-0.07742 0.04188,-0.194186 0.04188,-0.350297 0,-0.154841 -0.01396,-0.271607 -0.04188,-0.350297 -0.02792,-0.07869 -0.07742,-0.118035 -0.148496,-0.118035 -0.07234,0 -0.121842,0.03935 -0.148495,0.118035 -0.02665,0.07869 -0.03998,0.195456 -0.03998,0.350297 z m 0.351768,2.279913 h -0.287472 v -0.786265 c 0,-0.033 6.33e-4,-0.07615 0.0019,-0.129458 0.0025,-0.05331 0.0044,-0.100267 0.0057,-0.140881 -0.0063,0.0076 -0.02029,0.02157 -0.04188,0.04188 -0.02031,0.01904 -0.03934,0.03617 -0.05711,0.0514 l -0.156111,0.12565 -0.138976,-0.173245 0.437871,-0.348393 h 0.23607 z m -0.856703,-0.679653 c 0,0.145957 -0.01586,0.270973 -0.04759,0.375046 -0.03046,0.104074 -0.08059,0.184033 -0.1504,0.239878 -0.06854,0.05585 -0.161187,0.08377 -0.277953,0.08377 -0.163726,0 -0.283665,-0.06156 -0.359816,-0.184668 -0.07615,-0.124381 -0.114228,-0.295722 -0.114228,-0.514023 0,-0.147227 0.01523,-0.272877 0.04569,-0.376951 0.03046,-0.104073 0.08059,-0.184032 0.1504,-0.239877 0.0698,-0.05585 0.162456,-0.08377 0.277953,-0.08377 0.162457,0 0.282395,0.06156 0.359816,0.184668 0.07742,0.123111 0.116131,0.295087 0.116131,0.515927 z m -0.664422,0 c 0,0.154841 0.01333,0.271607 0.03998,0.350297 0.02665,0.07742 0.07615,0.116131 0.148496,0.116131 0.07108,0 0.120573,-0.03871 0.148495,-0.116131 0.02792,-0.07742 0.04188,-0.194186 0.04188,-0.350297 0,-0.154842 -0.01396,-0.271608 -0.04188,-0.350298 -0.02792,-0.07869 -0.07742,-0.118035 -0.148495,-0.118035 -0.07234,0 -0.121843,0.03935 -0.148496,0.118035 -0.02665,0.07869 -0.03998,0.195456 -0.03998,0.350298 z m 2.320117,1.665373 c 0,0.145957 -0.01587,0.270973 -0.0476,0.375046 -0.03046,0.104074 -0.08059,0.184033 -0.150399,0.239878 -0.06854,0.05585 -0.161188,0.08377 -0.277954,0.08377 -0.163726,0 -0.283665,-0.06156 -0.359816,-0.184668 -0.07615,-0.124381 -0.114227,-0.295722 -0.114227,-0.514023 0,-0.147227 0.01523,-0.272877 0.04569,-0.376951 0.03046,-0.104074 0.08059,-0.184033 0.150399,-0.239877 0.0698,-0.05585 0.162456,-0.08377 0.277953,-0.08377 0.162457,0 0.282396,0.06156 0.359817,0.184668 0.07742,0.123111 0.116131,0.295087 0.116131,0.515927 z m -0.664423,0 c 0,0.154841 0.01333,0.271607 0.03998,0.350297 0.02665,0.07742 0.07615,0.116131 0.148495,0.116131 0.07108,0 0.120574,-0.03871 0.148496,-0.116131 0.02792,-0.07742 0.04188,-0.194186 0.04188,-0.350297 0,-0.154842 -0.01396,-0.271608 -0.04188,-0.350298 -0.02792,-0.07869 -0.07742,-0.118035 -0.148496,-0.118035 -0.07234,0 -0.121842,0.03935 -0.148495,0.118035 -0.02665,0.07869 -0.03998,0.195456 -0.03998,0.350298 z m -0.656805,0.679653 h -0.287472 v -0.786266 c 0,-0.033 6.33e-4,-0.07615 0.0019,-0.129457 0.0025,-0.05331 0.0044,-0.100267 0.0057,-0.140881 -0.0063,0.0076 -0.02029,0.02157 -0.04188,0.04188 -0.02031,0.01904 -0.03934,0.03617 -0.05711,0.0514 l -0.156111,0.12565 -0.138976,-0.173245 0.437871,-0.348393 h 0.23607 z m -1.088965,0 h -0.287472 v -0.786266 c 0,-0.033 6.33e-4,-0.07615 0.0019,-0.129457 0.0025,-0.05331 0.0044,-0.100267 0.0057,-0.140881 -0.0063,0.0076 -0.02029,0.02157 -0.04188,0.04188 -0.02031,0.01904 -0.03934,0.03617 -0.05711,0.0514 l -0.156111,0.12565 -0.138977,-0.173245 0.437872,-0.348393 h 0.23607 z m 1.574055,0.844578 c 0,0.145957 -0.01587,0.270972 -0.0476,0.375046 -0.03046,0.104074 -0.08059,0.184033 -0.150399,0.239878 -0.06854,0.05585 -0.161188,0.08377 -0.277953,0.08377 -0.163726,0 -0.283665,-0.06156 -0.359817,-0.184668 -0.07615,-0.124381 -0.114227,-0.295722 -0.114227,-0.514023 0,-0.147227 0.01523,-0.272877 0.04569,-0.376951 0.03046,-0.104074 0.08059,-0.184033 0.150399,-0.239877 0.06981,-0.05585 0.162457,-0.08377 0.277954,-0.08377 0.162457,0 0.282395,0.06156 0.359816,0.184668 0.07742,0.123111 0.116131,0.295087 0.116131,0.515927 z m -0.664423,0 c 0,0.154841 0.01333,0.271607 0.03998,0.350297 0.02665,0.07742 0.07615,0.116131 0.148496,0.116131 0.07108,0 0.120573,-0.03871 0.148495,-0.116131 0.02792,-0.07742 0.04188,-0.194186 0.04188,-0.350297 0,-0.154842 -0.01396,-0.271608 -0.04188,-0.350298 -0.02792,-0.07869 -0.07742,-0.118035 -0.148495,-0.118035 -0.07234,0 -0.121843,0.03935 -0.148496,0.118035 -0.02665,0.07869 -0.03998,0.195456 -0.03998,0.350298 z m -0.656804,0.679653 H 19.047263 V 33.66277 c 0,-0.033 6.33e-4,-0.07615 0.0019,-0.129457 0.0025,-0.05331 0.0044,-0.100267 0.0057,-0.140881 -0.0063,0.0076 -0.02029,0.02157 -0.04188,0.04188 -0.02031,0.01904 -0.03934,0.03617 -0.05711,0.0514 l -0.15611,0.12565 -0.138977,-0.173245 0.437872,-0.348393 h 0.23607 z m -0.856703,-0.679653 c 0,0.145957 -0.01587,0.270972 -0.0476,0.375046 -0.03046,0.104074 -0.08059,0.184033 -0.150399,0.239878 -0.06854,0.05585 -0.161188,0.08377 -0.277954,0.08377 -0.163726,0 -0.283665,-0.06156 -0.359816,-0.184668 -0.07615,-0.124381 -0.114227,-0.295722 -0.114227,-0.514023 0,-0.147227 0.01523,-0.272877 0.04569,-0.376951 0.03046,-0.104074 0.08059,-0.184033 0.1504,-0.239877 0.06981,-0.05585 0.162456,-0.08377 0.277953,-0.08377 0.162457,0 0.282396,0.06156 0.359817,0.184668 0.07742,0.123111 0.116131,0.295087 0.116131,0.515927 z m -0.664423,0 c 0,0.154841 0.01333,0.271607 0.03998,0.350297 0.02665,0.07742 0.07615,0.116131 0.148495,0.116131 0.07108,0 0.120573,-0.03871 0.148496,-0.116131 0.02792,-0.07742 0.04188,-0.194186 0.04188,-0.350297 0,-0.154842 -0.01396,-0.271608 -0.04188,-0.350298 -0.02792,-0.07869 -0.07742,-0.118035 -0.148496,-0.118035 -0.07234,0 -0.121842,0.03935 -0.148495,0.118035 -0.02665,0.07869 -0.03998,0.195456 -0.03998,0.350298 z m 2.406995,2.335155 h -0.287472 v -0.786265 c 0,-0.033 6.33e-4,-0.07615 0.0019,-0.129458 0.0025,-0.05331 0.0044,-0.100267 0.0057,-0.14088 -0.0063,0.0076 -0.02029,0.02157 -0.04188,0.04188 -0.02031,0.01904 -0.03934,0.03617 -0.05711,0.0514 l -0.156111,0.12565 -0.138977,-0.173245 0.437872,-0.348393 h 0.23607 z m -0.856703,-0.679653 c 0,0.145957 -0.01587,0.270973 -0.0476,0.375047 -0.03046,0.104073 -0.08059,0.184032 -0.150399,0.239877 -0.06854,0.05585 -0.161188,0.08377 -0.277953,0.08377 -0.163726,0 -0.283665,-0.06156 -0.359817,-0.184668 -0.07615,-0.124381 -0.114227,-0.295722 -0.114227,-0.514023 0,-0.147227 0.01523,-0.272877 0.04569,-0.37695 0.03046,-0.104074 0.08059,-0.184033 0.150399,-0.239878 0.06981,-0.05585 0.162457,-0.08377 0.277954,-0.08377 0.162457,0 0.282395,0.06156 0.359816,0.184668 0.07742,0.123111 0.116131,0.295087 0.116131,0.515927 z m -0.664422,0 c 0,0.154841 0.01333,0.271607 0.03998,0.350297 0.02665,0.07742 0.07615,0.116131 0.148496,0.116131 0.07108,0 0.120573,-0.03871 0.148495,-0.116131 0.02792,-0.07742 0.04188,-0.194186 0.04188,-0.350297 0,-0.154841 -0.01396,-0.271607 -0.04188,-0.350297 -0.02792,-0.07869 -0.07742,-0.118035 -0.148495,-0.118035 -0.07234,0 -0.121843,0.03934 -0.148496,0.118035 -0.02665,0.07869 -0.03998,0.195456 -0.03998,0.350297 z m -0.656805,0.679653 h -0.287473 v -0.786265 c 0,-0.033 6.33e-4,-0.07615 0.0019,-0.129458 0.0025,-0.05331 0.0044,-0.100267 0.0057,-0.14088 -0.0063,0.0076 -0.02029,0.02157 -0.04188,0.04188 -0.02031,0.01904 -0.03934,0.03617 -0.05711,0.0514 l -0.15611,0.12565 -0.138977,-0.173245 0.437872,-0.348393 h 0.23607 z m -1.088966,0 h -0.287472 v -0.786265 c 0,-0.033 6.33e-4,-0.07615 0.0019,-0.129458 0.0025,-0.05331 0.0044,-0.100267 0.0057,-0.14088 -0.0063,0.0076 -0.02029,0.02157 -0.04188,0.04188 -0.02031,0.01904 -0.03934,0.03617 -0.05711,0.0514 l -0.15611,0.12565 -0.138977,-0.173245 0.437872,-0.348393 h 0.236069 z m 4.41251,1.73502 h -0.287472 v -0.786266 c 0,-0.033 6.33e-4,-0.07615 0.0019,-0.129457 0.0025,-0.05331 0.0044,-0.100267 0.0057,-0.140881 -0.0063,0.0076 -0.02029,0.02157 -0.04188,0.04188 -0.02031,0.01904 -0.03934,0.03617 -0.05711,0.0514 l -0.156111,0.12565 -0.138977,-0.173245 0.437872,-0.348393 h 0.23607 z m -0.856703,-0.679653 c 0,0.145957 -0.01587,0.270972 -0.0476,0.375046 -0.03046,0.104074 -0.08059,0.184033 -0.150399,0.239878 -0.06854,0.05585 -0.161188,0.08377 -0.277953,0.08377 -0.163726,0 -0.283665,-0.06156 -0.359817,-0.184668 -0.07615,-0.124381 -0.114227,-0.295722 -0.114227,-0.514023 0,-0.147227 0.01523,-0.272877 0.04569,-0.376951 0.03046,-0.104074 0.08059,-0.184033 0.150399,-0.239877 0.06981,-0.05585 0.162457,-0.08377 0.277954,-0.08377 0.162457,0 0.282395,0.06156 0.359816,0.184668 0.07742,0.123111 0.116131,0.295087 0.116131,0.515927 z m -0.664423,0 c 0,0.154841 0.01333,0.271607 0.03998,0.350297 0.02665,0.07742 0.07615,0.116131 0.148496,0.116131 0.07108,0 0.120573,-0.03871 0.148495,-0.116131 0.02792,-0.07742 0.04188,-0.194186 0.04188,-0.350297 0,-0.154842 -0.01396,-0.271608 -0.04188,-0.350298 -0.02792,-0.07869 -0.07742,-0.118035 -0.148495,-0.118035 -0.07234,0 -0.121843,0.03934 -0.148496,0.118035 -0.02665,0.07869 -0.03998,0.195456 -0.03998,0.350298 z m -0.656804,0.679653 h -0.287473 v -0.786266 c 0,-0.033 6.33e-4,-0.07615 0.0019,-0.129457 0.0025,-0.05331 0.0044,-0.100267 0.0057,-0.140881 -0.0063,0.0076 -0.02029,0.02157 -0.04188,0.04188 -0.02031,0.01904 -0.03934,0.03617 -0.05711,0.0514 l -0.15611,0.12565 -0.138977,-0.173245 0.437872,-0.348393 h 0.23607 z"
       sodipodi:nodetypes="ccccccccccccccccccccccccccccccccccccccccccccccccccccccccccccccccccccccccccccccccccccccccccccccccccccccccccccccccccccccccsccscsssssssscsssssssccscccccccccsccscsssssssscssssssssccscsssssssscsssssssccscccccccccccscccccccccsccscsssssssscsssssssccscccccccccsccscsssssssscsssssssccscccccccccsccscsssssssscsssssssccscccccccccccscccccccccccscccccccccsccscsssssssscsssssssccsccccccccc" />
    <path
       id="path2509"
       style="fill:url(#linearGradient29342);fill-opacity:1;stroke-width:0.271501;stroke-linecap:round;stroke-linejoin:bevel;stroke-miterlimit:4.5"
       d="m 20.372461,38.092159 h 0.556455 v 0.556455 h -0.556455 z m -0.953863,0.07424 h 0.556455 v 0.556455 h -0.556455 z m 0.585123,0.905834 h 0.556455 v 0.556455 h -0.556455 z m 1.753363,-0.397134 h 0.556455 v 0.556454 h -0.556455 z m -0.115709,0.639959 h 0.556454 v 0.556454 h -0.556454 z m 0.598451,0.728042 h 0.556455 v 0.556455 h -0.556455 z m 0.149201,1.097477 h 0.556454 V 41.69703 H 22.389027 Z M 21.549429,39.98394 h 0.556455 v 0.556455 h -0.556455 z m -0.800703,-0.350445 h 0.556454 v 0.556455 h -0.556454 z m 0.143114,0.731572 h 0.556455 v 0.556454 H 20.89184 Z m 0.876524,0.328701 h 0.556455 v 0.556454 h -0.556455 z m -1.872913,-0.869484 h 0.556454 v 0.556454 H 19.895451 Z M 16.069658,38.14283 h 0.556455 v 0.556454 h -0.556455 z m 1.311718,-0.398411 h 0.556455 v 0.556455 h -0.556455 z m 0.818665,1.563038 h 0.556454 v 0.556455 h -0.556454 z m 2.863094,-0.445721 h 0.556455 v 0.556455 h -0.556455 z m -2.052086,0.659031 h 0.556455 v 0.556455 h -0.556455 z m -0.282263,-0.659031 h 0.556455 v 0.556455 h -0.556455 z m -1.085199,-0.110733 h 0.556455 v 0.556455 h -0.556455 z m -0.818664,-0.45013 h 0.556454 v 0.556454 h -0.556454 z m -0.461371,-0.813626 h 0.556455 v 0.556455 h -0.556455 z m 0.423313,-0.897941 h 0.556455 v 0.556454 h -0.556455 z m 0.851788,0.394863 h 0.556454 v 0.556455 h -0.556454 z m 0.507353,0.850552 h 0.556454 v 0.556454 h -0.556454 z m 2.859758,-8.855202 c 0,0.145957 -0.01586,0.270973 -0.04759,0.375047 -0.03046,0.104073 -0.08059,0.184032 -0.150399,0.239877 -0.06854,0.05585 -0.161188,0.08377 -0.277954,0.08377 -0.163726,0 -0.283665,-0.06156 -0.359816,-0.184668 -0.07615,-0.124381 -0.114228,-0.295722 -0.114228,-0.514023 0,-0.147227 0.01523,-0.272877 0.04569,-0.37695 0.03046,-0.104074 0.08059,-0.184033 0.1504,-0.239878 0.0698,-0.05585 0.162456,-0.08377 0.277953,-0.08377 0.162457,0 0.282395,0.06156 0.359816,0.184668 0.07742,0.123112 0.116132,0.295088 0.116132,0.515927 z m -0.664423,0 c 0,0.154841 0.01333,0.271607 0.03998,0.350297 0.02665,0.07742 0.07615,0.116132 0.148495,0.116132 0.07108,0 0.120573,-0.03871 0.148496,-0.116132 0.02792,-0.07742 0.04188,-0.194186 0.04188,-0.350297 0,-0.154841 -0.01396,-0.271607 -0.04188,-0.350297 -0.02792,-0.07869 -0.07742,-0.118035 -0.148496,-0.118035 -0.07234,0 -0.121842,0.03935 -0.148495,0.118035 -0.02665,0.07869 -0.03998,0.195456 -0.03998,0.350297 z m 0.351768,2.279913 h -0.287472 v -0.786265 c 0,-0.033 6.33e-4,-0.07615 0.0019,-0.129458 0.0025,-0.05331 0.0044,-0.100267 0.0057,-0.140881 -0.0063,0.0076 -0.02029,0.02157 -0.04188,0.04188 -0.02031,0.01904 -0.03934,0.03617 -0.05711,0.0514 l -0.156111,0.12565 -0.138976,-0.173245 0.437871,-0.348393 h 0.23607 z m -0.856703,-0.679653 c 0,0.145957 -0.01586,0.270973 -0.04759,0.375046 -0.03046,0.104074 -0.08059,0.184033 -0.1504,0.239878 -0.06854,0.05585 -0.161187,0.08377 -0.277953,0.08377 -0.163726,0 -0.283665,-0.06156 -0.359816,-0.184668 -0.07615,-0.124381 -0.114228,-0.295722 -0.114228,-0.514023 0,-0.147227 0.01523,-0.272877 0.04569,-0.376951 0.03046,-0.104073 0.08059,-0.184032 0.1504,-0.239877 0.0698,-0.05585 0.162456,-0.08377 0.277953,-0.08377 0.162457,0 0.282395,0.06156 0.359816,0.184668 0.07742,0.123111 0.116131,0.295087 0.116131,0.515927 z m -0.664422,0 c 0,0.154841 0.01333,0.271607 0.03998,0.350297 0.02665,0.07742 0.07615,0.116131 0.148496,0.116131 0.07108,0 0.120573,-0.03871 0.148495,-0.116131 0.02792,-0.07742 0.04188,-0.194186 0.04188,-0.350297 0,-0.154842 -0.01396,-0.271608 -0.04188,-0.350298 -0.02792,-0.07869 -0.07742,-0.118035 -0.148495,-0.118035 -0.07234,0 -0.121843,0.03935 -0.148496,0.118035 -0.02665,0.07869 -0.03998,0.195456 -0.03998,0.350298 z m 2.320117,1.665373 c 0,0.145957 -0.01587,0.270973 -0.0476,0.375046 -0.03046,0.104074 -0.08059,0.184033 -0.150399,0.239878 -0.06854,0.05585 -0.161188,0.08377 -0.277954,0.08377 -0.163726,0 -0.283665,-0.06156 -0.359816,-0.184668 -0.07615,-0.124381 -0.114227,-0.295722 -0.114227,-0.514023 0,-0.147227 0.01523,-0.272877 0.04569,-0.376951 0.03046,-0.104074 0.08059,-0.184033 0.150399,-0.239877 0.0698,-0.05585 0.162456,-0.08377 0.277953,-0.08377 0.162457,0 0.282396,0.06156 0.359817,0.184668 0.07742,0.123111 0.116131,0.295087 0.116131,0.515927 z m -0.664423,0 c 0,0.154841 0.01333,0.271607 0.03998,0.350297 0.02665,0.07742 0.07615,0.116131 0.148495,0.116131 0.07108,0 0.120574,-0.03871 0.148496,-0.116131 0.02792,-0.07742 0.04188,-0.194186 0.04188,-0.350297 0,-0.154842 -0.01396,-0.271608 -0.04188,-0.350298 -0.02792,-0.07869 -0.07742,-0.118035 -0.148496,-0.118035 -0.07234,0 -0.121842,0.03935 -0.148495,0.118035 -0.02665,0.07869 -0.03998,0.195456 -0.03998,0.350298 z m -0.656805,0.679653 h -0.287472 v -0.786266 c 0,-0.033 6.33e-4,-0.07615 0.0019,-0.129457 0.0025,-0.05331 0.0044,-0.100267 0.0057,-0.140881 -0.0063,0.0076 -0.02029,0.02157 -0.04188,0.04188 -0.02031,0.01904 -0.03934,0.03617 -0.05711,0.0514 l -0.156111,0.12565 -0.138976,-0.173245 0.437871,-0.348393 h 0.23607 z m -1.088965,0 h -0.287472 v -0.786266 c 0,-0.033 6.33e-4,-0.07615 0.0019,-0.129457 0.0025,-0.05331 0.0044,-0.100267 0.0057,-0.140881 -0.0063,0.0076 -0.02029,0.02157 -0.04188,0.04188 -0.02031,0.01904 -0.03934,0.03617 -0.05711,0.0514 l -0.156111,0.12565 -0.138977,-0.173245 0.437872,-0.348393 h 0.23607 z m 1.574055,0.844578 c 0,0.145957 -0.01587,0.270972 -0.0476,0.375046 -0.03046,0.104074 -0.08059,0.184033 -0.150399,0.239878 -0.06854,0.05585 -0.161188,0.08377 -0.277953,0.08377 -0.163726,0 -0.283665,-0.06156 -0.359817,-0.184668 -0.07615,-0.124381 -0.114227,-0.295722 -0.114227,-0.514023 0,-0.147227 0.01523,-0.272877 0.04569,-0.376951 0.03046,-0.104074 0.08059,-0.184033 0.150399,-0.239877 0.06981,-0.05585 0.162457,-0.08377 0.277954,-0.08377 0.162457,0 0.282395,0.06156 0.359816,0.184668 0.07742,0.123111 0.116131,0.295087 0.116131,0.515927 z m -0.664423,0 c 0,0.154841 0.01333,0.271607 0.03998,0.350297 0.02665,0.07742 0.07615,0.116131 0.148496,0.116131 0.07108,0 0.120573,-0.03871 0.148495,-0.116131 0.02792,-0.07742 0.04188,-0.194186 0.04188,-0.350297 0,-0.154842 -0.01396,-0.271608 -0.04188,-0.350298 -0.02792,-0.07869 -0.07742,-0.118035 -0.148495,-0.118035 -0.07234,0 -0.121843,0.03935 -0.148496,0.118035 -0.02665,0.07869 -0.03998,0.195456 -0.03998,0.350298 z m -0.656804,0.679653 H 19.047263 V 33.66277 c 0,-0.033 6.33e-4,-0.07615 0.0019,-0.129457 0.0025,-0.05331 0.0044,-0.100267 0.0057,-0.140881 -0.0063,0.0076 -0.02029,0.02157 -0.04188,0.04188 -0.02031,0.01904 -0.03934,0.03617 -0.05711,0.0514 l -0.15611,0.12565 -0.138977,-0.173245 0.437872,-0.348393 h 0.23607 z m -0.856703,-0.679653 c 0,0.145957 -0.01587,0.270972 -0.0476,0.375046 -0.03046,0.104074 -0.08059,0.184033 -0.150399,0.239878 -0.06854,0.05585 -0.161188,0.08377 -0.277954,0.08377 -0.163726,0 -0.283665,-0.06156 -0.359816,-0.184668 -0.07615,-0.124381 -0.114227,-0.295722 -0.114227,-0.514023 0,-0.147227 0.01523,-0.272877 0.04569,-0.376951 0.03046,-0.104074 0.08059,-0.184033 0.1504,-0.239877 0.06981,-0.05585 0.162456,-0.08377 0.277953,-0.08377 0.162457,0 0.282396,0.06156 0.359817,0.184668 0.07742,0.123111 0.116131,0.295087 0.116131,0.515927 z m -0.664423,0 c 0,0.154841 0.01333,0.271607 0.03998,0.350297 0.02665,0.07742 0.07615,0.116131 0.148495,0.116131 0.07108,0 0.120573,-0.03871 0.148496,-0.116131 0.02792,-0.07742 0.04188,-0.194186 0.04188,-0.350297 0,-0.154842 -0.01396,-0.271608 -0.04188,-0.350298 -0.02792,-0.07869 -0.07742,-0.118035 -0.148496,-0.118035 -0.07234,0 -0.121842,0.03935 -0.148495,0.118035 -0.02665,0.07869 -0.03998,0.195456 -0.03998,0.350298 z m 2.406995,2.335155 h -0.287472 v -0.786265 c 0,-0.033 6.33e-4,-0.07615 0.0019,-0.129458 0.0025,-0.05331 0.0044,-0.100267 0.0057,-0.14088 -0.0063,0.0076 -0.02029,0.02157 -0.04188,0.04188 -0.02031,0.01904 -0.03934,0.03617 -0.05711,0.0514 l -0.156111,0.12565 -0.138977,-0.173245 0.437872,-0.348393 h 0.23607 z m -0.856703,-0.679653 c 0,0.145957 -0.01587,0.270973 -0.0476,0.375047 -0.03046,0.104073 -0.08059,0.184032 -0.150399,0.239877 -0.06854,0.05585 -0.161188,0.08377 -0.277953,0.08377 -0.163726,0 -0.283665,-0.06156 -0.359817,-0.184668 -0.07615,-0.124381 -0.114227,-0.295722 -0.114227,-0.514023 0,-0.147227 0.01523,-0.272877 0.04569,-0.37695 0.03046,-0.104074 0.08059,-0.184033 0.150399,-0.239878 0.06981,-0.05585 0.162457,-0.08377 0.277954,-0.08377 0.162457,0 0.282395,0.06156 0.359816,0.184668 0.07742,0.123111 0.116131,0.295087 0.116131,0.515927 z m -0.664422,0 c 0,0.154841 0.01333,0.271607 0.03998,0.350297 0.02665,0.07742 0.07615,0.116131 0.148496,0.116131 0.07108,0 0.120573,-0.03871 0.148495,-0.116131 0.02792,-0.07742 0.04188,-0.194186 0.04188,-0.350297 0,-0.154841 -0.01396,-0.271607 -0.04188,-0.350297 -0.02792,-0.07869 -0.07742,-0.118035 -0.148495,-0.118035 -0.07234,0 -0.121843,0.03934 -0.148496,0.118035 -0.02665,0.07869 -0.03998,0.195456 -0.03998,0.350297 z m -0.656805,0.679653 h -0.287473 v -0.786265 c 0,-0.033 6.33e-4,-0.07615 0.0019,-0.129458 0.0025,-0.05331 0.0044,-0.100267 0.0057,-0.14088 -0.0063,0.0076 -0.02029,0.02157 -0.04188,0.04188 -0.02031,0.01904 -0.03934,0.03617 -0.05711,0.0514 l -0.15611,0.12565 -0.138977,-0.173245 0.437872,-0.348393 h 0.23607 z m -1.088966,0 h -0.287472 v -0.786265 c 0,-0.033 6.33e-4,-0.07615 0.0019,-0.129458 0.0025,-0.05331 0.0044,-0.100267 0.0057,-0.14088 -0.0063,0.0076 -0.02029,0.02157 -0.04188,0.04188 -0.02031,0.01904 -0.03934,0.03617 -0.05711,0.0514 l -0.15611,0.12565 -0.138977,-0.173245 0.437872,-0.348393 h 0.236069 z m 4.41251,1.73502 h -0.287472 v -0.786266 c 0,-0.033 6.33e-4,-0.07615 0.0019,-0.129457 0.0025,-0.05331 0.0044,-0.100267 0.0057,-0.140881 -0.0063,0.0076 -0.02029,0.02157 -0.04188,0.04188 -0.02031,0.01904 -0.03934,0.03617 -0.05711,0.0514 l -0.156111,0.12565 -0.138977,-0.173245 0.437872,-0.348393 h 0.23607 z m -0.856703,-0.679653 c 0,0.145957 -0.01587,0.270972 -0.0476,0.375046 -0.03046,0.104074 -0.08059,0.184033 -0.150399,0.239878 -0.06854,0.05585 -0.161188,0.08377 -0.277953,0.08377 -0.163726,0 -0.283665,-0.06156 -0.359817,-0.184668 -0.07615,-0.124381 -0.114227,-0.295722 -0.114227,-0.514023 0,-0.147227 0.01523,-0.272877 0.04569,-0.376951 0.03046,-0.104074 0.08059,-0.184033 0.150399,-0.239877 0.06981,-0.05585 0.162457,-0.08377 0.277954,-0.08377 0.162457,0 0.282395,0.06156 0.359816,0.184668 0.07742,0.123111 0.116131,0.295087 0.116131,0.515927 z m -0.664423,0 c 0,0.154841 0.01333,0.271607 0.03998,0.350297 0.02665,0.07742 0.07615,0.116131 0.148496,0.116131 0.07108,0 0.120573,-0.03871 0.148495,-0.116131 0.02792,-0.07742 0.04188,-0.194186 0.04188,-0.350297 0,-0.154842 -0.01396,-0.271608 -0.04188,-0.350298 -0.02792,-0.07869 -0.07742,-0.118035 -0.148495,-0.118035 -0.07234,0 -0.121843,0.03934 -0.148496,0.118035 -0.02665,0.07869 -0.03998,0.195456 -0.03998,0.350298 z m -0.656804,0.679653 h -0.287473 v -0.786266 c 0,-0.033 6.33e-4,-0.07615 0.0019,-0.129457 0.0025,-0.05331 0.0044,-0.100267 0.0057,-0.140881 -0.0063,0.0076 -0.02029,0.02157 -0.04188,0.04188 -0.02031,0.01904 -0.03934,0.03617 -0.05711,0.0514 l -0.15611,0.12565 -0.138977,-0.173245 0.437872,-0.348393 h 0.23607 z"
       sodipodi:nodetypes="ccccccccccccccccccccccccccccccccccccccccccccccccccccccccccccccccccccccccccccccccccccccccccccccccccccccccccccccccccccccccsccscsssssssscsssssssccscccccccccsccscsssssssscssssssssccscsssssssscsssssssccscccccccccccscccccccccsccscsssssssscsssssssccscccccccccsccscsssssssscsssssssccscccccccccsccscsssssssscsssssssccscccccccccccscccccccccccscccccccccsccscsssssssscsssssssccsccccccccc" />
  </g>
</svg>
